RobotoFlex-opsz14-wght400-wdth25-slnt-1.ufo
<glyph name="asterisk" format="2">
  <advance width="950"/>
  <unicode hex="002A"/>
  <outline>
    <contour>
      <point x="115" y="1094" type="line"/>
      <point x="201" y="1269" type="line"/>
      <point x="478" y="1128" type="line"/>
      <point x="514" y="1476" type="line"/>
      <point x="690" y="1476" type="line"/>
      <point x="587" y="1128" type="line"/>
      <point x="929" y="1269" type="line"/>
      <point x="952" y="1094" type="line"/>
      <point x="606" y="1020" type="line"/>
      <point x="779" y="760" type="line"/>
      <point x="621" y="652" type="line"/>
      <point x="511" y="954" type="line"/>
      <point x="279" y="652" type="line"/>
      <point x="152" y="760" type="line"/>
      <point x="429" y="1020" type="line"/>
    </contour>
  </outline>
</glyph>
<glyph name="period" format="2">
  <advance width="553"/>
  <unicode hex="002E"/>
  <outline>
    <contour>
      <point x="45" y="112" type="qcurve" smooth="yes"/>
      <point x="48" y="163"/>
      <point x="113" y="234"/>
      <point x="173" y="234" type="qcurve" smooth="yes"/>
      <point x="231" y="233"/>
      <point x="290" y="161"/>
      <point x="288" y="109" type="qcurve" smooth="yes"/>
      <point x="285" y="59"/>
      <point x="221" y="-12"/>
      <point x="161" y="-12" type="qcurve" smooth="yes"/>
      <point x="103" y="-11"/>
      <point x="43" y="61"/>
    </contour>
  </outline>
</glyph>
<glyph name="eight" format="2">
  <advance width="1004"/>
  <unicode hex="0038"/>
  <outline>
    <contour>
      <point x="49" y="386" type="qcurve" smooth="yes"/>
      <point x="72" y="515"/>
      <point x="220" y="697"/>
      <point x="325" y="743" type="qcurve"/>
      <point x="325" y="747" type="line"/>
      <point x="259" y="792"/>
      <point x="190" y="968"/>
      <point x="211" y="1087" type="qcurve" smooth="yes"/>
      <point x="243" y="1267"/>
      <point x="483" y="1486"/>
      <point x="636" y="1486" type="qcurve" smooth="yes"/>
      <point x="788" y="1486"/>
      <point x="952" y="1267"/>
      <point x="919" y="1087" type="qcurve" smooth="yes"/>
      <point x="898" y="968"/>
      <point x="767" y="792"/>
      <point x="686" y="747" type="qcurve"/>
      <point x="686" y="743" type="line"/>
      <point x="774" y="697"/>
      <point x="857" y="516"/>
      <point x="835" y="386" type="qcurve" smooth="yes"/>
      <point x="800" y="188"/>
      <point x="537" y="-30"/>
      <point x="368" y="-30" type="qcurve" smooth="yes"/>
      <point x="199" y="-30"/>
      <point x="14" y="188"/>
    </contour>
    <contour>
      <point x="225" y="395" type="qcurve" smooth="yes"/>
      <point x="204" y="274"/>
      <point x="292" y="123"/>
      <point x="396" y="123" type="qcurve" smooth="yes"/>
      <point x="499" y="123"/>
      <point x="640" y="274"/>
      <point x="661" y="395" type="qcurve" smooth="yes"/>
      <point x="682" y="517"/>
      <point x="594" y="668"/>
      <point x="491" y="668" type="qcurve" smooth="yes"/>
      <point x="387" y="668"/>
      <point x="246" y="517"/>
    </contour>
    <contour>
      <point x="380" y="1078" type="qcurve" smooth="yes"/>
      <point x="360" y="966"/>
      <point x="431" y="822"/>
      <point x="519" y="822" type="qcurve" smooth="yes"/>
      <point x="606" y="822"/>
      <point x="728" y="966"/>
      <point x="747" y="1078" type="qcurve" smooth="yes"/>
      <point x="767" y="1190"/>
      <point x="694" y="1333"/>
      <point x="608" y="1333" type="qcurve" smooth="yes"/>
      <point x="520" y="1333"/>
      <point x="399" y="1190"/>
    </contour>
  </outline>
</glyph>
<glyph name="B" format="2">
  <advance width="1086"/>
  <unicode hex="0042"/>
  <anchor x="630.0" y="0" name="bottom"/>
  <anchor x="630.0" y="1456" name="top"/>
  <outline>
    <contour>
      <point x="37" y="0" type="line"/>
      <point x="294" y="1456" type="line"/>
      <point x="681" y="1456" type="line" smooth="yes"/>
      <point x="868" y="1456"/>
      <point x="1048" y="1270"/>
      <point x="1013" y="1071" type="qcurve" smooth="yes"/>
      <point x="992" y="950"/>
      <point x="863" y="796"/>
      <point x="780" y="768" type="qcurve"/>
      <point x="779" y="764" type="line"/>
      <point x="870" y="735"/>
      <point x="960" y="560"/>
      <point x="935" y="418" type="qcurve" smooth="yes"/>
      <point x="900" y="220"/>
      <point x="638" y="0"/>
      <point x="454" y="0" type="qcurve" smooth="yes"/>
    </contour>
    <contour>
      <point x="236" y="153" type="line"/>
      <point x="481" y="153" type="line" smooth="yes"/>
      <point x="601" y="153"/>
      <point x="738" y="297"/>
      <point x="759" y="419" type="qcurve" smooth="yes"/>
      <point x="780" y="540"/>
      <point x="693" y="682"/>
      <point x="574" y="682" type="qcurve" smooth="yes"/>
      <point x="331" y="682" type="line"/>
    </contour>
    <contour>
      <point x="359" y="834" type="line"/>
      <point x="572" y="834" type="line" smooth="yes"/>
      <point x="690" y="834"/>
      <point x="817" y="959"/>
      <point x="837" y="1071" type="qcurve" smooth="yes"/>
      <point x="856" y="1183"/>
      <point x="772" y="1303"/>
      <point x="653" y="1303" type="qcurve" smooth="yes"/>
      <point x="440" y="1303" type="line"/>
    </contour>
  </outline>
</glyph>
<glyph name="C" format="2">
  <advance width="1117"/>
  <unicode hex="0043"/>
  <anchor x="489" y="0" name="bottom"/>
  <anchor x="620" y="1456" name="top"/>
  <outline>
    <contour>
      <point x="104" y="682" type="qcurve" smooth="yes"/>
      <point x="120" y="774" type="line" smooth="yes"/>
      <point x="183" y="1138"/>
      <point x="521" y="1486"/>
      <point x="748" y="1486" type="qcurve" smooth="yes"/>
      <point x="963" y="1486"/>
      <point x="1133" y="1222"/>
      <point x="1111" y="1000" type="qcurve" smooth="yes"/>
      <point x="1109" y="983" type="line"/>
      <point x="938" y="983" type="line"/>
      <point x="940" y="1000" type="line" smooth="yes"/>
      <point x="955" y="1129"/>
      <point x="874" y="1327"/>
      <point x="720" y="1327" type="qcurve" smooth="yes"/>
      <point x="558" y="1327"/>
      <point x="350" y="1076"/>
      <point x="308" y="815" type="qcurve" smooth="yes"/>
      <point x="280" y="642" type="line" smooth="yes"/>
      <point x="239" y="392"/>
      <point x="362" y="129"/>
      <point x="509" y="129" type="qcurve" smooth="yes"/>
      <point x="648" y="129"/>
      <point x="821" y="313"/>
      <point x="841" y="436" type="qcurve" smooth="yes"/>
      <point x="846" y="466" type="line"/>
      <point x="1024" y="466" type="line"/>
      <point x="1019" y="436" type="line" smooth="yes"/>
      <point x="982" y="217"/>
      <point x="695" y="-30"/>
      <point x="481" y="-30" type="qcurve" smooth="yes"/>
      <point x="252" y="-30"/>
      <point x="42" y="323"/>
    </contour>
  </outline>
</glyph>
<glyph name="D" format="2">
  <advance width="1183"/>
  <unicode hex="0044"/>
  <anchor x="630.0" y="0" name="bottom"/>
  <anchor x="322.0" y="728.0" name="center"/>
  <anchor x="510.0" y="1456" name="top"/>
  <outline>
    <contour>
      <point x="37" y="0" type="line"/>
      <point x="294" y="1456" type="line"/>
      <point x="645" y="1456" type="line" smooth="yes"/>
      <point x="882" y="1456"/>
      <point x="1134" y="1106"/>
      <point x="1079" y="774" type="qcurve" smooth="yes"/>
      <point x="1063" y="682" type="line" smooth="yes"/>
      <point x="1008" y="350"/>
      <point x="626" y="0"/>
      <point x="388" y="0" type="qcurve" smooth="yes"/>
    </contour>
    <contour>
      <point x="243" y="153" type="line"/>
      <point x="416" y="153" type="line" smooth="yes"/>
      <point x="587" y="153"/>
      <point x="839" y="414"/>
      <point x="882" y="682" type="qcurve" smooth="yes"/>
      <point x="899" y="774" type="line" smooth="yes"/>
      <point x="942" y="1042"/>
      <point x="789" y="1303"/>
      <point x="617" y="1303" type="qcurve" smooth="yes"/>
      <point x="444" y="1303" type="line"/>
    </contour>
  </outline>
</glyph>
<glyph name="F" format="2">
  <advance width="966"/>
  <unicode hex="0046"/>
  <outline>
    <contour>
      <point x="37" y="0" type="line"/>
      <point x="294" y="1456" type="line"/>
      <point x="1039" y="1456" type="line"/>
      <point x="1011" y="1303" type="line"/>
      <point x="443" y="1303" type="line"/>
      <point x="356" y="798" type="line"/>
      <point x="842" y="798" type="line"/>
      <point x="814" y="646" type="line"/>
      <point x="329" y="646" type="line"/>
      <point x="215" y="0" type="line"/>
    </contour>
  </outline>
</glyph>
<glyph name="H" format="2">
  <advance width="1258"/>
  <unicode hex="0048"/>
  <anchor x="729.0" y="0" name="bottom"/>
  <anchor x="684.0" y="1100.0" name="center"/>
  <anchor x="629.0" y="1456" name="top"/>
  <outline>
    <contour>
      <point x="37" y="0" type="line"/>
      <point x="294" y="1456" type="line"/>
      <point x="472" y="1456" type="line"/>
      <point x="361" y="828" type="line"/>
      <point x="933" y="828" type="line"/>
      <point x="1044" y="1456" type="line"/>
      <point x="1222" y="1456" type="line"/>
      <point x="965" y="0" type="line"/>
      <point x="787" y="0" type="line"/>
      <point x="906" y="674" type="line"/>
      <point x="334" y="674" type="line"/>
      <point x="215" y="0" type="line"/>
    </contour>
  </outline>
</glyph>
<glyph name="L" format="2">
  <advance width="919"/>
  <unicode hex="004C"/>
  <outline>
    <contour>
      <point x="37" y="0" type="line"/>
      <point x="294" y="1456" type="line"/>
      <point x="472" y="1456" type="line"/>
      <point x="243" y="153" type="line"/>
      <point x="796" y="153" type="line"/>
      <point x="768" y="0" type="line"/>
    </contour>
  </outline>
</glyph>
<glyph name="N" format="2">
  <advance width="1247"/>
  <unicode hex="004E"/>
  <anchor x="730.0" y="0" name="bottom"/>
  <anchor x="630.0" y="1456" name="top"/>
  <outline>
    <contour>
      <point x="37" y="0" type="line"/>
      <point x="294" y="1456" type="line"/>
      <point x="493" y="1456" type="line"/>
      <point x="792" y="432" type="line" smooth="yes"/>
      <point x="799" y="407"/>
      <point x="827" y="286"/>
      <point x="832" y="251" type="qcurve"/>
      <point x="839" y="251" type="line"/>
      <point x="841" y="290"/>
      <point x="855" y="418"/>
      <point x="861" y="450" type="qcurve" smooth="yes"/>
      <point x="1039" y="1456" type="line"/>
      <point x="1211" y="1456" type="line"/>
      <point x="954" y="0" type="line"/>
      <point x="752" y="0" type="line"/>
      <point x="448" y="1030" type="line" smooth="yes"/>
      <point x="439" y="1060"/>
      <point x="419" y="1146"/>
      <point x="414" y="1178" type="qcurve"/>
      <point x="406" y="1178" type="line"/>
      <point x="404" y="1144"/>
      <point x="390" y="1044"/>
      <point x="385" y="1010" type="qcurve" smooth="yes"/>
      <point x="208" y="0" type="line"/>
    </contour>
  </outline>
</glyph>
<glyph name="O" format="2">
  <advance width="1230"/>
  <unicode hex="004F"/>
  <anchor x="610.0" y="0" name="bottom"/>
  <anchor x="730.0" y="728.0" name="center"/>
  <anchor x="659" y="0" name="ogonek"/>
  <anchor x="620.0" y="1456" name="top"/>
  <anchor x="912" y="1456" name="topright"/>
  <outline>
    <contour>
      <point x="104" y="682" type="qcurve" smooth="yes"/>
      <point x="120" y="774" type="line" smooth="yes"/>
      <point x="179" y="1130"/>
      <point x="524" y="1486"/>
      <point x="749" y="1486" type="qcurve" smooth="yes"/>
      <point x="974" y="1486"/>
      <point x="1185" y="1130"/>
      <point x="1126" y="774" type="qcurve" smooth="yes"/>
      <point x="1110" y="682" type="line" smooth="yes"/>
      <point x="1051" y="326"/>
      <point x="707" y="-30"/>
      <point x="482" y="-30" type="qcurve" smooth="yes"/>
      <point x="257" y="-30"/>
      <point x="45" y="326"/>
    </contour>
    <contour>
      <point x="279" y="652" type="line" smooth="yes"/>
      <point x="235" y="392"/>
      <point x="359" y="129"/>
      <point x="511" y="129" type="qcurve" smooth="yes"/>
      <point x="662" y="129"/>
      <point x="884" y="392"/>
      <point x="926" y="652" type="qcurve" smooth="yes"/>
      <point x="951" y="805" type="line" smooth="yes"/>
      <point x="993" y="1065"/>
      <point x="872" y="1327"/>
      <point x="720" y="1327" type="qcurve" smooth="yes"/>
      <point x="569" y="1327"/>
      <point x="349" y="1065"/>
      <point x="305" y="805" type="qcurve" smooth="yes"/>
    </contour>
  </outline>
</glyph>
<glyph name="P" format="2">
  <advance width="1048"/>
  <unicode hex="0050"/>
  <anchor x="600.0" y="0" name="bottom"/>
  <anchor x="600.0" y="1456" name="top"/>
  <outline>
    <contour>
      <point x="37" y="0" type="line"/>
      <point x="294" y="1456" type="line"/>
      <point x="683" y="1456" type="line" smooth="yes"/>
      <point x="876" y="1456"/>
      <point x="1058" y="1226"/>
      <point x="1024" y="1016" type="qcurve" smooth="yes"/>
      <point x="989" y="797"/>
      <point x="730" y="572"/>
      <point x="527" y="572" type="qcurve" smooth="yes"/>
      <point x="316" y="572" type="line"/>
      <point x="215" y="0" type="line"/>
    </contour>
    <contour>
      <point x="344" y="726" type="line"/>
      <point x="555" y="726" type="line" smooth="yes"/>
      <point x="689" y="726"/>
      <point x="825" y="890"/>
      <point x="846" y="1016" type="qcurve" smooth="yes"/>
      <point x="867" y="1143"/>
      <point x="789" y="1303"/>
      <point x="655" y="1303" type="qcurve" smooth="yes"/>
      <point x="444" y="1303" type="line"/>
    </contour>
  </outline>
</glyph>
<glyph name="R" format="2">
  <advance width="1066"/>
  <unicode hex="0052"/>
  <anchor x="605.0" y="0" name="bottom"/>
  <anchor x="495.0" y="1456" name="top"/>
  <outline>
    <contour>
      <point x="37" y="0" type="line"/>
      <point x="294" y="1456" type="line"/>
      <point x="675" y="1456" type="line" smooth="yes"/>
      <point x="864" y="1456"/>
      <point x="1046" y="1234"/>
      <point x="1015" y="1029" type="qcurve" smooth="yes"/>
      <point x="983" y="816"/>
      <point x="722" y="596"/>
      <point x="523" y="596" type="qcurve" smooth="yes"/>
      <point x="320" y="596" type="line"/>
      <point x="215" y="0" type="line"/>
    </contour>
    <contour>
      <point x="347" y="748" type="line"/>
      <point x="551" y="748" type="line" smooth="yes"/>
      <point x="683" y="748"/>
      <point x="817" y="907"/>
      <point x="837" y="1029" type="qcurve" smooth="yes"/>
      <point x="858" y="1152"/>
      <point x="780" y="1305"/>
      <point x="648" y="1305" type="qcurve" smooth="yes"/>
      <point x="444" y="1305" type="line"/>
    </contour>
    <contour>
      <point x="723" y="0" type="line"/>
      <point x="523" y="672" type="line"/>
      <point x="691" y="672" type="line"/>
      <point x="900" y="0" type="line"/>
    </contour>
  </outline>
</glyph>
<glyph name="S" format="2">
  <advance width="1034"/>
  <unicode hex="0053"/>
  <anchor x="400.0" y="0" name="bottom"/>
  <anchor x="510.0" y="1456" name="top"/>
  <outline>
    <contour>
      <point x="29" y="388" type="qcurve" smooth="yes"/>
      <point x="32" y="410" type="line"/>
      <point x="210" y="410" type="line"/>
      <point x="208" y="387" type="line" smooth="yes"/>
      <point x="197" y="255"/>
      <point x="298" y="129"/>
      <point x="421" y="129" type="qcurve" smooth="yes"/>
      <point x="544" y="129"/>
      <point x="696" y="241"/>
      <point x="716" y="348" type="qcurve" smooth="yes"/>
      <point x="733" y="451"/>
      <point x="613" y="588"/>
      <point x="466" y="667" type="qcurve" smooth="yes"/>
      <point x="319" y="746"/>
      <point x="151" y="965"/>
      <point x="181" y="1134" type="qcurve" smooth="yes"/>
      <point x="211" y="1319"/>
      <point x="461" y="1486"/>
      <point x="652" y="1486" type="qcurve" smooth="yes"/>
      <point x="843" y="1486"/>
      <point x="1027" y="1266"/>
      <point x="994" y="1074" type="qcurve" smooth="yes"/>
      <point x="992" y="1052" type="line"/>
      <point x="814" y="1052" type="line"/>
      <point x="816" y="1075" type="line" smooth="yes"/>
      <point x="826" y="1190"/>
      <point x="741" y="1327"/>
      <point x="623" y="1327" type="qcurve" smooth="yes"/>
      <point x="499" y="1327"/>
      <point x="375" y="1232"/>
      <point x="357" y="1147" type="qcurve" smooth="yes"/>
      <point x="340" y="1060"/>
      <point x="459" y="901"/>
      <point x="600" y="822" type="qcurve" smooth="yes"/>
      <point x="741" y="743"/>
      <point x="924" y="526"/>
      <point x="892" y="347" type="qcurve" smooth="yes"/>
      <point x="860" y="152"/>
      <point x="591" y="-30"/>
      <point x="392" y="-30" type="qcurve" smooth="yes"/>
      <point x="214" y="-30"/>
      <point x="2" y="189"/>
    </contour>
  </outline>
</glyph>
<glyph name="T" format="2">
  <advance width="986"/>
  <unicode hex="0054"/>
  <anchor x="363.0" y="0" name="bottom"/>
  <anchor x="498.0" y="728.0" name="center"/>
  <anchor x="488.0" y="1456" name="top"/>
  <outline>
    <contour>
      <point x="124" y="1303" type="line"/>
      <point x="152" y="1456" type="line"/>
      <point x="1092" y="1456" type="line"/>
      <point x="1064" y="1303" type="line"/>
      <point x="682" y="1303" type="line"/>
      <point x="453" y="0" type="line"/>
      <point x="276" y="0" type="line"/>
      <point x="505" y="1303" type="line"/>
    </contour>
  </outline>
</glyph>
<glyph name="X" format="2">
  <advance width="1003"/>
  <unicode hex="0058"/>
  <anchor x="611.0" y="0" name="bottom"/>
  <anchor x="611.0" y="1456" name="top"/>
  <outline>
    <contour>
      <point x="-107" y="0" type="line"/>
      <point x="453" y="804" type="line"/>
      <point x="459" y="804" type="line"/>
      <point x="893" y="1456" type="line"/>
      <point x="1090" y="1456" type="line"/>
      <point x="553" y="672" type="line"/>
      <point x="548" y="672" type="line"/>
      <point x="90" y="0" type="line"/>
    </contour>
    <contour>
      <point x="178" y="1456" type="line"/>
      <point x="357" y="1456" type="line"/>
      <point x="562" y="804" type="line"/>
      <point x="570" y="804" type="line"/>
      <point x="845" y="0" type="line"/>
      <point x="666" y="0" type="line"/>
      <point x="444" y="672" type="line"/>
      <point x="437" y="672" type="line"/>
    </contour>
  </outline>
</glyph>
<glyph name="Y" format="2">
  <advance width="1006"/>
  <unicode hex="0059"/>
  <anchor x="474.0" y="0" name="bottom"/>
  <anchor x="514.0" y="1456" name="top"/>
  <outline>
    <contour>
      <point x="285" y="0" type="line"/>
      <point x="381" y="546" type="line"/>
      <point x="143" y="1456" type="line"/>
      <point x="333" y="1456" type="line"/>
      <point x="471" y="867" type="line" smooth="yes"/>
      <point x="478" y="837"/>
      <point x="494" y="768"/>
      <point x="499" y="738" type="qcurve"/>
      <point x="507" y="738" type="line"/>
      <point x="521" y="768"/>
      <point x="554" y="837"/>
      <point x="572" y="867" type="qcurve" smooth="yes"/>
      <point x="931" y="1456" type="line"/>
      <point x="1119" y="1456" type="line"/>
      <point x="560" y="546" type="line"/>
      <point x="464" y="0" type="line"/>
    </contour>
  </outline>
</glyph>
<glyph name="Z" format="2">
  <advance width="952"/>
  <unicode hex="005A"/>
  <anchor x="595.0" y="0" name="bottom"/>
  <anchor x="445.0" y="1456" name="top"/>
  <outline>
    <contour>
      <point x="-94" y="0" type="line"/>
      <point x="-69" y="135" type="line"/>
      <point x="781" y="1303" type="line"/>
      <point x="147" y="1303" type="line"/>
      <point x="174" y="1456" type="line"/>
      <point x="1016" y="1456" type="line"/>
      <point x="991" y="1321" type="line"/>
      <point x="141" y="153" type="line"/>
      <point x="818" y="153" type="line"/>
      <point x="790" y="0" type="line"/>
    </contour>
  </outline>
</glyph>
<glyph name="bracketleft" format="2">
  <advance width="621"/>
  <unicode hex="005B"/>
  <outline>
    <contour>
      <point x="-43" y="-310" type="line"/>
      <point x="268" y="1456" type="line"/>
      <point x="662" y="1456" type="line"/>
      <point x="634" y="1301" type="line"/>
      <point x="412" y="1301" type="line"/>
      <point x="157" y="-155" type="line"/>
      <point x="379" y="-155" type="line"/>
      <point x="351" y="-310" type="line"/>
    </contour>
  </outline>
</glyph>
<glyph name="a" format="2">
  <advance width="939"/>
  <unicode hex="0061"/>
  <anchor x="353.0" y="0" name="bottom"/>
  <anchor x="710" y="0" name="ogonek"/>
  <anchor x="453.0" y="1052" name="top"/>
  <outline>
    <contour>
      <point x="14" y="308" type="qcurve" smooth="yes"/>
      <point x="42" y="473"/>
      <point x="272" y="646"/>
      <point x="444" y="646" type="qcurve" smooth="yes"/>
      <point x="619" y="646" type="line"/>
      <point x="632" y="720" type="line" smooth="yes"/>
      <point x="648" y="817"/>
      <point x="598" y="938"/>
      <point x="511" y="938" type="qcurve" smooth="yes"/>
      <point x="423" y="938"/>
      <point x="330" y="837"/>
      <point x="319" y="770" type="qcurve" smooth="yes"/>
      <point x="318" y="765" type="line"/>
      <point x="146" y="765" type="line"/>
      <point x="147" y="770" type="line" smooth="yes"/>
      <point x="169" y="905"/>
      <point x="386" y="1082"/>
      <point x="541" y="1082" type="qcurve" smooth="yes"/>
      <point x="697" y="1082"/>
      <point x="836" y="910"/>
      <point x="804" y="720" type="qcurve" smooth="yes"/>
      <point x="719" y="240" type="line" smooth="yes"/>
      <point x="708" y="175"/>
      <point x="705" y="60"/>
      <point x="713" y="16" type="qcurve"/>
      <point x="710" y="0" type="line"/>
      <point x="542" y="0" type="line"/>
      <point x="536" y="23"/>
      <point x="531" y="95"/>
      <point x="534" y="132" type="qcurve"/>
      <point x="495" y="72"/>
      <point x="351" y="-20"/>
      <point x="252" y="-20" type="qcurve" smooth="yes"/>
      <point x="127" y="-20"/>
      <point x="-14" y="139"/>
    </contour>
    <contour>
      <point x="188" y="308" type="qcurve" smooth="yes"/>
      <point x="172" y="212"/>
      <point x="233" y="124"/>
      <point x="309" y="124" type="qcurve" smooth="yes"/>
      <point x="390" y="124"/>
      <point x="554" y="243"/>
      <point x="569" y="344" type="qcurve"/>
      <point x="596" y="518" type="line"/>
      <point x="437" y="518" type="line" smooth="yes"/>
      <point x="333" y="518"/>
      <point x="204" y="418"/>
    </contour>
  </outline>
</glyph>
<glyph name="b" format="2">
  <advance width="997"/>
  <unicode hex="0062"/>
  <anchor x="585.0" y="0" name="bottom"/>
  <anchor x="585.0" y="1536" name="top"/>
  <outline>
    <contour>
      <point x="16" y="0" type="line"/>
      <point x="286" y="1536" type="line"/>
      <point x="459" y="1536" type="line"/>
      <point x="352" y="943" type="line"/>
      <point x="400" y="1002"/>
      <point x="536" y="1072"/>
      <point x="623" y="1072" type="qcurve" smooth="yes"/>
      <point x="784" y="1072"/>
      <point x="924" y="772"/>
      <point x="882" y="542" type="qcurve" smooth="yes"/>
      <point x="876" y="509" type="line" smooth="yes"/>
      <point x="834" y="279"/>
      <point x="591" y="-20"/>
      <point x="430" y="-20" type="qcurve" smooth="yes"/>
      <point x="343" y="-20"/>
      <point x="229" y="62"/>
      <point x="208" y="122" type="qcurve"/>
      <point x="204" y="122" type="line"/>
      <point x="174" y="0" type="line"/>
    </contour>
    <contour>
      <point x="243" y="288" type="line"/>
      <point x="255" y="224"/>
      <point x="340" y="128"/>
      <point x="415" y="128" type="qcurve" smooth="yes"/>
      <point x="528" y="128"/>
      <point x="672" y="318"/>
      <point x="700" y="480" type="qcurve" smooth="yes"/>
      <point x="716" y="572" type="line" smooth="yes"/>
      <point x="744" y="734"/>
      <point x="667" y="924"/>
      <point x="558" y="924" type="qcurve" smooth="yes"/>
      <point x="486" y="924"/>
      <point x="351" y="820"/>
      <point x="318" y="764" type="qcurve"/>
    </contour>
  </outline>
</glyph>
<glyph name="d" format="2">
  <advance width="997"/>
  <unicode hex="0064"/>
  <anchor x="585.0" y="0" name="bottom"/>
  <anchor x="810.0" y="1313.0" name="center"/>
  <anchor x="585.0" y="1536" name="top"/>
  <anchor x="911" y="1052" name="topright"/>
  <outline>
    <contour>
      <point x="44" y="510" type="qcurve" smooth="yes"/>
      <point x="50" y="542" type="line" smooth="yes"/>
      <point x="91" y="772"/>
      <point x="335" y="1072"/>
      <point x="496" y="1072" type="qcurve" smooth="yes"/>
      <point x="583" y="1072"/>
      <point x="691" y="1002"/>
      <point x="717" y="943" type="qcurve"/>
      <point x="824" y="1536" type="line"/>
      <point x="996" y="1536" type="line"/>
      <point x="725" y="0" type="line"/>
      <point x="567" y="0" type="line"/>
      <point x="585" y="122" type="line"/>
      <point x="581" y="122" type="line"/>
      <point x="538" y="62"/>
      <point x="390" y="-20"/>
      <point x="304" y="-20" type="qcurve" smooth="yes"/>
      <point x="143" y="-20"/>
      <point x="4" y="280"/>
    </contour>
    <contour>
      <point x="211" y="480" type="line" smooth="yes"/>
      <point x="185" y="318"/>
      <point x="260" y="128"/>
      <point x="372" y="128" type="qcurve" smooth="yes"/>
      <point x="447" y="128"/>
      <point x="572" y="225"/>
      <point x="608" y="288" type="qcurve"/>
      <point x="683" y="764" type="line"/>
      <point x="672" y="827"/>
      <point x="586" y="924"/>
      <point x="511" y="924" type="qcurve" smooth="yes"/>
      <point x="399" y="924"/>
      <point x="252" y="734"/>
      <point x="226" y="572" type="qcurve" smooth="yes"/>
    </contour>
  </outline>
</glyph>
<glyph name="f" format="2">
  <advance width="498"/>
  <unicode hex="0066"/>
  <anchor x="300.0" y="0" name="bottom"/>
  <anchor x="300.0" y="1536" name="top"/>
  <outline>
    <contour>
      <point x="28" y="0" type="line"/>
      <point x="240" y="1200" type="line" smooth="yes"/>
      <point x="270" y="1374"/>
      <point x="465" y="1556"/>
      <point x="606" y="1556" type="qcurve" smooth="yes"/>
      <point x="631" y="1556"/>
      <point x="686" y="1548"/>
      <point x="708" y="1540" type="qcurve"/>
      <point x="673" y="1394" type="line"/>
      <point x="656" y="1399"/>
      <point x="615" y="1405"/>
      <point x="593" y="1405" type="qcurve" smooth="yes"/>
      <point x="523" y="1405"/>
      <point x="430" y="1302"/>
      <point x="412" y="1200" type="qcurve" smooth="yes"/>
      <point x="375" y="994" type="line"/>
      <point x="372" y="972" type="line"/>
      <point x="201" y="0" type="line"/>
    </contour>
    <contour>
      <point x="57" y="914" type="line"/>
      <point x="82" y="1052" type="line"/>
      <point x="282" y="1052" type="line"/>
      <point x="318" y="1052" type="line"/>
      <point x="565" y="1052" type="line"/>
      <point x="540" y="914" type="line"/>
    </contour>
  </outline>
</glyph>
<glyph name="h" format="2">
  <advance width="977"/>
  <unicode hex="0068"/>
  <anchor x="569.0" y="0" name="bottom"/>
  <anchor x="420.0" y="1327.0" name="center"/>
  <anchor x="314.0" y="1536" name="top"/>
  <outline>
    <contour>
      <point x="16" y="0" type="line"/>
      <point x="286" y="1536" type="line"/>
      <point x="459" y="1536" type="line"/>
      <point x="351" y="914" type="line"/>
      <point x="401" y="986"/>
      <point x="552" y="1072"/>
      <point x="649" y="1072" type="qcurve" smooth="yes"/>
      <point x="759" y="1072"/>
      <point x="872" y="900"/>
      <point x="835" y="724" type="qcurve" smooth="yes"/>
      <point x="715" y="0" type="line"/>
      <point x="543" y="0" type="line"/>
      <point x="664" y="726" type="line" smooth="yes"/>
      <point x="680" y="822"/>
      <point x="635" y="921"/>
      <point x="564" y="921" type="qcurve" smooth="yes"/>
      <point x="485" y="921"/>
      <point x="355" y="814"/>
      <point x="319" y="744" type="qcurve"/>
      <point x="188" y="0" type="line"/>
    </contour>
  </outline>
</glyph>
<glyph name="i" format="2">
  <advance width="477"/>
  <unicode hex="0069"/>
  <anchor x="60.0" y="0" name="bottom"/>
  <anchor x="250.0" y="1052" name="top"/>
  <anchor x="168" y="0" name="ogonek"/>
  <outline>
    <contour>
      <point x="24" y="0" type="line"/>
      <point x="210" y="1052" type="line"/>
      <point x="382" y="1052" type="line"/>
      <point x="197" y="0" type="line"/>
    </contour>
    <contour>
      <point x="250" y="1373" type="qcurve" smooth="yes"/>
      <point x="253" y="1417"/>
      <point x="310" y="1476"/>
      <point x="360" y="1476" type="qcurve" smooth="yes"/>
      <point x="409" y="1475"/>
      <point x="458" y="1415"/>
      <point x="455" y="1371" type="qcurve" smooth="yes"/>
      <point x="451" y="1327"/>
      <point x="394" y="1268"/>
      <point x="344" y="1268" type="qcurve" smooth="yes"/>
      <point x="295" y="1269"/>
      <point x="246" y="1329"/>
    </contour>
  </outline>
</glyph>
<glyph name="k" format="2">
  <advance width="867"/>
  <unicode hex="006B"/>
  <anchor x="314.0" y="0" name="bottom"/>
  <anchor x="514.0" y="1536" name="top"/>
  <outline>
    <contour>
      <point x="16" y="0" type="line"/>
      <point x="286" y="1536" type="line"/>
      <point x="459" y="1536" type="line"/>
      <point x="287" y="603" type="line"/>
      <point x="714" y="1052" type="line"/>
      <point x="902" y="1052" type="line"/>
      <point x="251" y="384" type="line"/>
      <point x="188" y="0" type="line"/>
    </contour>
    <contour>
      <point x="583" y="0" type="line"/>
      <point x="380" y="594" type="line"/>
      <point x="492" y="731" type="line"/>
      <point x="753" y="0" type="line"/>
    </contour>
  </outline>
</glyph>
<glyph name="l" format="2">
  <advance width="476"/>
  <unicode hex="006C"/>
  <outline>
    <contour>
      <point x="23" y="0" type="line"/>
      <point x="294" y="1536" type="line"/>
      <point x="467" y="1536" type="line"/>
      <point x="196" y="0" type="line"/>
    </contour>
  </outline>
</glyph>
<glyph name="o" format="2">
  <advance width="981"/>
  <unicode hex="006F"/>
  <anchor x="364.0" y="0" name="bottom"/>
  <anchor x="581.0" y="526.0" name="center"/>
  <anchor x="517" y="0" name="ogonek"/>
  <anchor x="481.0" y="1052" name="top"/>
  <anchor x="702" y="1052" name="topright"/>
  <outline>
    <contour>
      <point x="44" y="510" type="qcurve" smooth="yes"/>
      <point x="50" y="542" type="line" smooth="yes"/>
      <point x="92" y="800"/>
      <point x="367" y="1082"/>
      <point x="553" y="1082" type="qcurve" smooth="yes"/>
      <point x="740" y="1082"/>
      <point x="909" y="800"/>
      <point x="867" y="542" type="qcurve" smooth="yes"/>
      <point x="862" y="510" type="line" smooth="yes"/>
      <point x="820" y="252"/>
      <point x="544" y="-30"/>
      <point x="357" y="-30" type="qcurve" smooth="yes"/>
      <point x="171" y="-30"/>
      <point x="2" y="252"/>
    </contour>
    <contour>
      <point x="226" y="572" type="qcurve" smooth="yes"/>
      <point x="211" y="480" type="line" smooth="yes"/>
      <point x="184" y="313"/>
      <point x="269" y="118"/>
      <point x="384" y="118" type="qcurve" smooth="yes"/>
      <point x="500" y="118"/>
      <point x="660" y="313"/>
      <point x="685" y="480" type="qcurve" smooth="yes"/>
      <point x="699" y="572" type="line" smooth="yes"/>
      <point x="725" y="744"/>
      <point x="648" y="934"/>
      <point x="527" y="934" type="qcurve" smooth="yes"/>
      <point x="405" y="934"/>
      <point x="253" y="739"/>
    </contour>
  </outline>
</glyph>
<glyph name="p" format="2">
  <advance width="997"/>
  <unicode hex="0070"/>
  <anchor x="585.0" y="0" name="bottom"/>
  <anchor x="585.0" y="1052" name="top"/>
  <outline>
    <contour>
      <point x="-58" y="-416" type="line"/>
      <point x="201" y="1052" type="line"/>
      <point x="359" y="1052" type="line"/>
      <point x="342" y="930" type="line"/>
      <point x="345" y="930" type="line"/>
      <point x="389" y="990"/>
      <point x="536" y="1072"/>
      <point x="623" y="1072" type="qcurve" smooth="yes"/>
      <point x="784" y="1072"/>
      <point x="923" y="772"/>
      <point x="882" y="542" type="qcurve" smooth="yes"/>
      <point x="876" y="510" type="line" smooth="yes"/>
      <point x="836" y="280"/>
      <point x="591" y="-20"/>
      <point x="430" y="-20" type="qcurve" smooth="yes"/>
      <point x="343" y="-20"/>
      <point x="235" y="43"/>
      <point x="210" y="102" type="qcurve"/>
      <point x="115" y="-416" type="line"/>
    </contour>
    <contour>
      <point x="243" y="276" type="line"/>
      <point x="250" y="230"/>
      <point x="330" y="128"/>
      <point x="415" y="128" type="qcurve" smooth="yes"/>
      <point x="525" y="128"/>
      <point x="662" y="318"/>
      <point x="690" y="480" type="qcurve" smooth="yes"/>
      <point x="706" y="572" type="line" smooth="yes"/>
      <point x="734" y="734"/>
      <point x="667" y="924"/>
      <point x="559" y="924" type="qcurve" smooth="yes"/>
      <point x="481" y="924"/>
      <point x="353" y="828"/>
      <point x="318" y="774" type="qcurve"/>
    </contour>
  </outline>
</glyph>
<glyph name="t" format="2">
  <advance width="550"/>
  <unicode hex="0074"/>
  <anchor x="208.0" y="0" name="bottom"/>
  <anchor x="225.0" y="619.0" name="center"/>
  <anchor x="325.0" y="1312" name="top"/>
  <anchor x="500" y="1052" name="topright"/>
  <outline>
    <contour>
      <point x="32" y="914" type="line"/>
      <point x="57" y="1052" type="line"/>
      <point x="558" y="1052" type="line"/>
      <point x="533" y="914" type="line"/>
    </contour>
    <contour>
      <point x="66" y="260" type="qcurve" smooth="yes"/>
      <point x="191" y="968" type="line"/>
      <point x="196" y="998" type="line"/>
      <point x="252" y="1312" type="line"/>
      <point x="424" y="1312" type="line"/>
      <point x="239" y="253" type="line" smooth="yes"/>
      <point x="226" y="177"/>
      <point x="258" y="125"/>
      <point x="305" y="125" type="qcurve" smooth="yes"/>
      <point x="327" y="125"/>
      <point x="371" y="134"/>
      <point x="395" y="142" type="qcurve"/>
      <point x="368" y="0" type="line"/>
      <point x="345" y="-12"/>
      <point x="273" y="-30"/>
      <point x="232" y="-30" type="qcurve" smooth="yes"/>
      <point x="133" y="-30"/>
      <point x="40" y="110"/>
    </contour>
  </outline>
</glyph>
<glyph name="u" format="2">
  <advance width="977"/>
  <unicode hex="0075"/>
  <anchor x="369.0" y="0" name="bottom"/>
  <anchor x="705" y="0" name="ogonek"/>
  <anchor x="469.0" y="1052" name="top"/>
  <anchor x="807" y="1052" name="topright"/>
  <outline>
    <contour>
      <point x="72" y="354" type="qcurve" smooth="yes"/>
      <point x="191" y="1052" type="line"/>
      <point x="364" y="1052" type="line"/>
      <point x="244" y="352" type="line" smooth="yes"/>
      <point x="221" y="234"/>
      <point x="277" y="131"/>
      <point x="360" y="131" type="qcurve" smooth="yes"/>
      <point x="432" y="131"/>
      <point x="541" y="204"/>
      <point x="587" y="268" type="qcurve"/>
      <point x="718" y="1052" type="line"/>
      <point x="891" y="1052" type="line"/>
      <point x="705" y="0" type="line"/>
      <point x="547" y="0" type="line"/>
      <point x="565" y="100" type="line"/>
      <point x="560" y="100" type="line"/>
      <point x="505" y="47"/>
      <point x="366" y="-20"/>
      <point x="269" y="-20" type="qcurve" smooth="yes"/>
      <point x="153" y="-20"/>
      <point x="34" y="152"/>
    </contour>
  </outline>
</glyph>
<glyph name="v" format="2">
  <advance width="782"/>
  <unicode hex="0076"/>
  <anchor x="471.0" y="0" name="bottom"/>
  <anchor x="471.0" y="1052" name="top"/>
  <outline>
    <contour>
      <point x="57" y="1052" type="line"/>
      <point x="227" y="1052" type="line"/>
      <point x="289" y="374" type="line" smooth="yes"/>
      <point x="293" y="334"/>
      <point x="295" y="264"/>
      <point x="297" y="224" type="qcurve"/>
      <point x="302" y="224" type="line"/>
      <point x="310" y="264"/>
      <point x="338" y="334"/>
      <point x="356" y="374" type="qcurve" smooth="yes"/>
      <point x="665" y="1052" type="line"/>
      <point x="839" y="1052" type="line"/>
      <point x="332" y="0" type="line"/>
      <point x="194" y="0" type="line"/>
    </contour>
  </outline>
</glyph>
<glyph name="w" format="2">
  <advance width="1289"/>
  <unicode hex="0077"/>
  <anchor x="773.0" y="0" name="bottom"/>
  <anchor x="653.0" y="1052" name="top"/>
  <outline>
    <contour>
      <point x="82" y="1052" type="line"/>
      <point x="249" y="1052" type="line"/>
      <point x="266" y="384" type="line" smooth="yes"/>
      <point x="267" y="344"/>
      <point x="272" y="274"/>
      <point x="270" y="234" type="qcurve"/>
      <point x="275" y="234" type="line"/>
      <point x="288" y="274"/>
      <point x="312" y="344"/>
      <point x="329" y="384" type="qcurve" smooth="yes"/>
      <point x="627" y="1052" type="line"/>
      <point x="784" y="1052" type="line"/>
      <point x="839" y="384" type="line" smooth="yes"/>
      <point x="842" y="344"/>
      <point x="847" y="274"/>
      <point x="846" y="234" type="qcurve"/>
      <point x="852" y="234" type="line"/>
      <point x="864" y="274"/>
      <point x="888" y="344"/>
      <point x="903" y="384" type="qcurve" smooth="yes"/>
      <point x="1161" y="1052" type="line"/>
      <point x="1322" y="1052" type="line"/>
      <point x="887" y="0" type="line"/>
      <point x="730" y="0" type="line"/>
      <point x="672" y="657" type="line" smooth="yes"/>
      <point x="669" y="697"/>
      <point x="664" y="777"/>
      <point x="666" y="817" type="qcurve"/>
      <point x="660" y="817" type="line"/>
      <point x="646" y="777"/>
      <point x="616" y="697"/>
      <point x="598" y="657" type="qcurve" smooth="yes"/>
      <point x="303" y="0" type="line"/>
      <point x="147" y="0" type="line"/>
    </contour>
  </outline>
</glyph>
<glyph name="x" format="2">
  <advance width="817"/>
  <unicode hex="0078"/>
  <anchor x="489.0" y="0" name="bottom"/>
  <anchor x="489.0" y="1052" name="top"/>
  <outline>
    <contour>
      <point x="-109" y="0" type="line"/>
      <point x="318" y="580" type="line"/>
      <point x="328" y="580" type="line"/>
      <point x="656" y="1052" type="line"/>
      <point x="838" y="1052" type="line"/>
      <point x="427" y="486" type="line"/>
      <point x="415" y="486" type="line"/>
      <point x="73" y="0" type="line"/>
    </contour>
    <contour>
      <point x="102" y="1052" type="line"/>
      <point x="270" y="1052" type="line"/>
      <point x="438" y="580" type="line"/>
      <point x="440" y="580" type="line"/>
      <point x="661" y="0" type="line"/>
      <point x="494" y="0" type="line"/>
      <point x="318" y="486" type="line"/>
      <point x="315" y="486" type="line"/>
    </contour>
  </outline>
</glyph>
<glyph name="z" format="2">
  <advance width="773"/>
  <unicode hex="007A"/>
  <anchor x="496.0" y="0" name="bottom"/>
  <anchor x="376.0" y="1052" name="top"/>
  <outline>
    <contour>
      <point x="-75" y="0" type="line"/>
      <point x="-51" y="133" type="line"/>
      <point x="537" y="904" type="line"/>
      <point x="90" y="904" type="line"/>
      <point x="117" y="1052" type="line"/>
      <point x="758" y="1052" type="line"/>
      <point x="734" y="922" type="line"/>
      <point x="143" y="148" type="line"/>
      <point x="624" y="148" type="line"/>
      <point x="597" y="0" type="line"/>
    </contour>
  </outline>
</glyph>
<glyph name="exclamdown" format="2">
  <advance width="612"/>
  <unicode hex="00A1"/>
  <outline>
    <contour>
      <point x="484.0249646474306" y="1055.0" type="qcurve" smooth="yes"/>
      <point x="475.56126957342417" y="1007.0"/>
      <point x="401.39470790454016" y="938.0"/>
      <point x="343.39470790454016" y="938.0" type="qcurve" smooth="yes"/>
      <point x="285.39470790454016" y="938.0"/>
      <point x="235.56126957342423" y="1007.0"/>
      <point x="244.02496464743058" y="1055.0" type="qcurve" smooth="yes"/>
      <point x="252.48865972143687" y="1103.0"/>
      <point x="326.65522139032095" y="1172.0"/>
      <point x="384.655221390321" y="1172.0" type="qcurve" smooth="yes"/>
      <point x="442.655221390321" y="1172.0"/>
      <point x="492.4886597214369" y="1103.0"/>
    </contour>
    <contour>
      <point x="387.4819657242641" y="740.0" type="line"/>
      <point x="217.0439439032097" y="-306.0" type="line"/>
      <point x="32.04394390320971" y="-306.0" type="line"/>
      <point x="230.48196572426411" y="740.0" type="line"/>
    </contour>
  </outline>
</glyph>
<glyph name="cent" format="2">
  <advance width="935"/>
  <unicode hex="00A2"/>
  <outline>
    <contour>
      <point x="411.72420855978714" y="282.0" type="qcurve" smooth="yes"/>
      <point x="522.7242085597871" y="282.0"/>
      <point x="636.9993700133045" y="414.0"/>
      <point x="653.2214522384833" y="506.0" type="qcurve"/>
      <point x="825.2214522384833" y="506.0" type="line"/>
      <point x="797.8907702286712" y="351.0"/>
      <point x="574.6278154149343" y="134.0"/>
      <point x="387.6278154149343" y="134.0" type="qcurve" smooth="yes"/>
      <point x="201.62781541493433" y="134.0"/>
      <point x="30.35202397472142" y="416.0"/>
      <point x="75.84438499750539" y="674.0" type="qcurve" smooth="yes"/>
      <point x="81.48684838017627" y="706.0" type="line" smooth="yes"/>
      <point x="126.97920940296024" y="964.0"/>
      <point x="397.7034179627474" y="1246.0"/>
      <point x="591.7034179627474" y="1246.0" type="qcurve" smooth="yes"/>
      <point x="770.7034179627474" y="1246.0"/>
      <point x="917.4404631490104" y="1029.0"/>
      <point x="890.1097811391984" y="874.0" type="qcurve"/>
      <point x="718.1097811391984" y="874.0" type="line"/>
      <point x="734.3318633643771" y="966.0"/>
      <point x="673.430697837186" y="1097.0"/>
      <point x="564.430697837186" y="1097.0" type="qcurve" smooth="yes"/>
      <point x="447.430697837186" y="1097.0"/>
      <point x="297.87060961832697" y="901.0"/>
      <point x="268.77665780143025" y="736.0" type="qcurve" smooth="yes"/>
      <point x="252.5545755762514" y="644.0" type="line" smooth="yes"/>
      <point x="223.4606237593547" y="479.0"/>
      <point x="299.72420855978714" y="282.0"/>
    </contour>
    <contour>
      <point x="272.0" y="0.0" type="line"/>
      <point x="313.7894944279062" y="237.0" type="line"/>
      <point x="321.2580721578247" y="251.0" type="line"/>
      <point x="401.8395023415932" y="708.0" type="line"/>
      <point x="541.8395023415932" y="708.0" type="line"/>
      <point x="461.0817451771162" y="250.0" type="line"/>
      <point x="464.3184753700316" y="240.0" type="line"/>
      <point x="422.0" y="0.0" type="line"/>
    </contour>
    <contour>
      <point x="401.8395023415932" y="708.0" type="line"/>
      <point x="485.4184911974056" y="1182.0" type="line"/>
      <point x="482.1817610044902" y="1192.0" type="line"/>
      <point x="519.2104269532679" y="1402.0" type="line"/>
      <point x="669.2104269532679" y="1402.0" type="line"/>
      <point x="632.1817610044902" y="1192.0" type="line"/>
      <point x="624.8895102552802" y="1179.0" type="line"/>
      <point x="541.8395023415932" y="708.0" type="line"/>
    </contour>
  </outline>
</glyph>
<glyph name="sterling" format="2">
  <advance width="933"/>
  <unicode hex="00A3"/>
  <outline>
    <contour>
      <point x="800.0" y="0.0" type="line"/>
      <point x="-92.0" y="0.0" type="line"/>
      <point x="-63.7876830866456" y="160.0" type="line"/>
      <point x="-7.7876830866456" y="160.0" type="line" smooth="yes"/>
      <point x="84.21231691335439" y="160.0"/>
      <point x="193.12994174954264" y="324.0"/>
      <point x="204.34469999085314" y="467.0" type="qcurve" smooth="yes"/>
      <point x="250.2037329560951" y="1039.0" type="line" smooth="yes"/>
      <point x="267.40872588558125" y="1250.0"/>
      <point x="481.25862352569425" y="1476.0"/>
      <point x="663.2586235256942" y="1476.0" type="qcurve" smooth="yes"/>
      <point x="833.2586235256942" y="1476.0"/>
      <point x="982.2275162489605" y="1283.0"/>
      <point x="950.4886597214368" y="1103.0" type="qcurve" smooth="yes"/>
      <point x="947.6674280301015" y="1087.0" type="line"/>
      <point x="755.6674280301014" y="1087.0" type="line"/>
      <point x="758.4886597214369" y="1103.0" type="line" smooth="yes"/>
      <point x="775.945030811575" y="1202.0"/>
      <point x="712.8120177473807" y="1309.0"/>
      <point x="635.8120177473807" y="1309.0" type="qcurve" smooth="yes"/>
      <point x="550.8120177473807" y="1309.0"/>
      <point x="449.1262404481955" y="1169.0"/>
      <point x="438.2037329560951" y="1039.0" type="qcurve" smooth="yes"/>
      <point x="395.57410619990026" y="508.0" type="line" smooth="yes"/>
      <point x="384.593636823549" y="372.0"/>
      <point x="300.49968500665227" y="207.0"/>
      <point x="223.27027879760522" y="166.0" type="qcurve"/>
      <point x="829.2702787976052" y="166.0" type="line"/>
    </contour>
    <contour>
      <point x="706.9096708656244" y="629.0" type="line"/>
      <point x="34.90967086562446" y="629.0" type="line"/>
      <point x="60.82973702976881" y="776.0" type="line"/>
      <point x="732.8297370297688" y="776.0" type="line"/>
    </contour>
  </outline>
</glyph>
<glyph name="dieresis" format="2">
  <advance width="1024"/>
  <unicode hex="00A8"/>
  <outline>
    <contour>
      <point x="330.1646717087976" y="1326.0" type="qcurve" smooth="yes"/>
      <point x="338.0993858406785" y="1371.0"/>
      <point x="405.03165864460334" y="1433.0"/>
      <point x="458.03165864460334" y="1433.0" type="qcurve" smooth="yes"/>
      <point x="512.0316586446033" y="1433.0"/>
      <point x="557.0993858406785" y="1371.0"/>
      <point x="549.1646717087976" y="1326.0" type="qcurve" smooth="yes"/>
      <point x="541.5826115383336" y="1283.0"/>
      <point x="474.8266657151172" y="1222.0"/>
      <point x="420.8266657151172" y="1222.0" type="qcurve" smooth="yes"/>
      <point x="367.8266657151172" y="1222.0"/>
      <point x="322.5826115383336" y="1283.0"/>
    </contour>
    <contour>
      <point x="680.8120177473807" y="1324.0" type="qcurve" smooth="yes"/>
      <point x="688.7467318792616" y="1369.0"/>
      <point x="754.6790046831863" y="1431.0"/>
      <point x="808.6790046831863" y="1431.0" type="qcurve" smooth="yes"/>
      <point x="861.6790046831863" y="1431.0"/>
      <point x="907.7467318792615" y="1369.0"/>
      <point x="899.8120177473807" y="1324.0" type="qcurve" smooth="yes"/>
      <point x="892.2299575769166" y="1281.0"/>
      <point x="824.4740117537003" y="1220.0"/>
      <point x="771.4740117537003" y="1220.0" type="qcurve" smooth="yes"/>
      <point x="717.4740117537003" y="1220.0"/>
      <point x="673.2299575769166" y="1281.0"/>
    </contour>
  </outline>
</glyph>
<glyph name="copyright" format="2">
  <advance width="1548"/>
  <unicode hex="00A9"/>
  <guideline x="30.870609618326938" y="901.0" angle="0.0" identifier="0Pjz0qKr8z"/>
  <guideline x="-30.138525706801943" y="555.0" angle="0.0" identifier="sJo8BlDiJ7"/>
  <outline>
    <contour>
      <point x="895.2745314668218" y="546.0" type="qcurve"/>
      <point x="1077.2745314668218" y="546.0" type="line"/>
      <point x="1048.3569066306336" y="382.0"/>
      <point x="836.1470310452353" y="205.0"/>
      <point x="668.1470310452353" y="205.0" type="qcurve" smooth="yes"/>
      <point x="502.1470310452353" y="205.0"/>
      <point x="366.11285245385" y="443.0"/>
      <point x="405.08111519042075" y="664.0" type="qcurve" smooth="yes"/>
      <point x="411.9578674380509" y="703.0" type="line" smooth="yes"/>
      <point x="451.63143809745543" y="928.0"/>
      <point x="681.302567428904" y="1170.0"/>
      <point x="855.302567428904" y="1170.0" type="qcurve" smooth="yes"/>
      <point x="1015.302567428904" y="1170.0"/>
      <point x="1157.0926918435057" y="993.0"/>
      <point x="1128.1750670073175" y="829.0" type="qcurve"/>
      <point x="946.1750670073175" y="829.0" type="line"/>
      <point x="961.162860367537" y="914.0"/>
      <point x="898.3849425927158" y="1006.0"/>
      <point x="825.3849425927158" y="1006.0" type="qcurve" smooth="yes"/>
      <point x="745.3849425927158" y="1006.0"/>
      <point x="634.7571271777815" y="872.0"/>
      <point x="612.7162545892234" y="747.0" type="qcurve" smooth="yes"/>
      <point x="590.4990550199568" y="621.0" type="line" smooth="yes"/>
      <point x="568.4581824313987" y="496.0"/>
      <point x="635.8303670164644" y="362.0"/>
      <point x="720.8303670164644" y="362.0" type="qcurve" smooth="yes"/>
      <point x="788.8303670164644" y="362.0"/>
      <point x="879.5814301837685" y="457.0"/>
    </contour>
    <contour>
      <point x="176.13663574671546" y="687.0" type="qcurve" smooth="yes"/>
      <point x="125.530792283386" y="400.0"/>
      <point x="382.70530792283387" y="4.0"/>
      <point x="647.7053079228339" y="4.0" type="qcurve" smooth="yes"/>
      <point x="911.7053079228338" y="4.0"/>
      <point x="1308.530792283386" y="400.0"/>
      <point x="1359.1366357467155" y="687.0" type="qcurve" smooth="yes"/>
      <point x="1409.9188061907535" y="975.0"/>
      <point x="1152.0389826284716" y="1367.0"/>
      <point x="888.0389826284716" y="1367.0" type="qcurve" smooth="yes"/>
      <point x="623.0389826284716" y="1367.0"/>
      <point x="226.91880619075334" y="975.0"/>
    </contour>
    <contour>
      <point x="28.136635746715456" y="687.0" type="qcurve" smooth="yes"/>
      <point x="90.20373295609511" y="1039.0"/>
      <point x="587.8406836961583" y="1519.0"/>
      <point x="913.8406836961583" y="1519.0" type="qcurve" smooth="yes"/>
      <point x="1238.8406836961583" y="1519.0"/>
      <point x="1568.203732956095" y="1039.0"/>
      <point x="1506.1366357467155" y="687.0" type="qcurve" smooth="yes"/>
      <point x="1444.4221924987528" y="337.0"/>
      <point x="945.0799338358556" y="-147.0"/>
      <point x="620.0799338358556" y="-147.0" type="qcurve" smooth="yes"/>
      <point x="294.0799338358556" y="-147.0"/>
      <point x="-33.57780750124731" y="337.0"/>
    </contour>
  </outline>
</glyph>
<glyph name="logicalnot" format="2">
  <advance width="948"/>
  <unicode hex="00AC"/>
  <outline>
    <contour>
      <point x="841.2379115474805" y="801.0" type="line"/>
      <point x="766.2989447463829" y="376.0" type="line"/>
      <point x="587.2989447463829" y="376.0" type="line"/>
      <point x="634.378248595543" y="643.0" type="line"/>
      <point x="43.37824859554297" y="643.0" type="line"/>
      <point x="71.23791154748045" y="801.0" type="line"/>
    </contour>
  </outline>
</glyph>
<glyph name="registered" format="2">
  <advance width="1548"/>
  <unicode hex="00AE"/>
  <outline>
    <contour>
      <point x="28.136635746715456" y="687.0" type="qcurve" smooth="yes"/>
      <point x="90.20373295609511" y="1039.0"/>
      <point x="587.8406836961583" y="1519.0"/>
      <point x="913.8406836961583" y="1519.0" type="qcurve" smooth="yes"/>
      <point x="1238.8406836961583" y="1519.0"/>
      <point x="1568.203732956095" y="1039.0"/>
      <point x="1506.1366357467155" y="687.0" type="qcurve" smooth="yes"/>
      <point x="1444.4221924987528" y="337.0"/>
      <point x="945.0799338358556" y="-147.0"/>
      <point x="620.0799338358556" y="-147.0" type="qcurve" smooth="yes"/>
      <point x="294.0799338358556" y="-147.0"/>
      <point x="-33.57780750124731" y="337.0"/>
    </contour>
    <contour>
      <point x="176.13663574671546" y="687.0" type="qcurve" smooth="yes"/>
      <point x="125.530792283386" y="400.0"/>
      <point x="382.70530792283387" y="4.0"/>
      <point x="647.7053079228339" y="4.0" type="qcurve" smooth="yes"/>
      <point x="911.7053079228338" y="4.0"/>
      <point x="1308.530792283386" y="400.0"/>
      <point x="1359.1366357467155" y="687.0" type="qcurve" smooth="yes"/>
      <point x="1409.9188061907535" y="975.0"/>
      <point x="1152.0389826284716" y="1367.0"/>
      <point x="888.0389826284716" y="1367.0" type="qcurve" smooth="yes"/>
      <point x="623.0389826284716" y="1367.0"/>
      <point x="226.91880619075334" y="975.0"/>
    </contour>
    <contour>
      <point x="779.2672074829536" y="597.0" type="line"/>
      <point x="638.2672074829536" y="597.0" type="line"/>
      <point x="572.6735706594046" y="225.0" type="line"/>
      <point x="407.6735706594046" y="225.0" type="line"/>
      <point x="572.1866436604024" y="1158.0" type="line"/>
      <point x="844.1866436604024" y="1158.0" type="line" smooth="yes"/>
      <point x="1001.1866436604025" y="1158.0"/>
      <point x="1144.4429044769665" y="1012.0"/>
      <point x="1120.6387620813239" y="877.0" type="qcurve" smooth="yes"/>
      <point x="1101.771775145518" y="770.0"/>
      <point x="985.9676327498753" y="635.0"/>
      <point x="897.9700740778314" y="618.0" type="qcurve"/>
      <point x="924.9145535215366" y="595.0"/>
      <point x="946.9194361774489" y="561.0"/>
      <point x="955.4532997754864" y="530.0" type="qcurve" smooth="yes"/>
      <point x="1032.847456312157" y="243.0" type="line"/>
      <point x="1029.6735706594045" y="225.0" type="line"/>
      <point x="850.6735706594046" y="225.0" type="line"/>
    </contour>
    <contour>
      <point x="818.5612695734242" y="1007.0" type="qcurve" smooth="yes"/>
      <point x="710.5612695734242" y="1007.0" type="line"/>
      <point x="663.1293117628471" y="738.0" type="line"/>
      <point x="796.1293117628471" y="738.0" type="line" smooth="yes"/>
      <point x="853.1293117628471" y="738.0"/>
      <point x="926.2379115474805" y="801.0"/>
      <point x="936.4648764285714" y="859.0" type="qcurve" smooth="yes"/>
      <point x="948.807765078164" y="929.0"/>
      <point x="887.3849425927158" y="1006.0"/>
    </contour>
  </outline>
</glyph>
<glyph name="plusminus" format="2">
  <advance width="1024"/>
  <unicode hex="00B1"/>
  <outline>
    <contour>
      <point x="63.08843917428902" y="613.0" type="line"/>
      <point x="91.30075608764344" y="773.0" type="line"/>
      <point x="949.3007560876435" y="773.0" type="line"/>
      <point x="921.0884391742891" y="613.0" type="line"/>
    </contour>
    <contour>
      <point x="341.7290912156993" y="248.0" type="line"/>
      <point x="502.5392976218194" y="1160.0" type="line"/>
      <point x="674.5392976218194" y="1160.0" type="line"/>
      <point x="513.7290912156993" y="248.0" type="line"/>
    </contour>
    <contour>
      <point x="-44.82367301929153" y="1.0" type="line"/>
      <point x="-15.90604818310328" y="165.0" type="line"/>
      <point x="842.0939518168967" y="165.0" type="line"/>
      <point x="813.1763269807085" y="1.0" type="line"/>
    </contour>
  </outline>
</glyph>
<glyph name="threesuperior" format="2">
  <advance width="664"/>
  <unicode hex="00B3"/>
  <outline>
    <contour>
      <point x="93.33918734824545" y="915.0" type="qcurve"/>
      <point x="250.33918734824545" y="915.0" type="line"/>
      <point x="242.22814623565603" y="869.0"/>
      <point x="293.41179720023285" y="819.0"/>
      <point x="349.41179720023285" y="819.0" type="qcurve" smooth="yes"/>
      <point x="401.41179720023285" y="819.0"/>
      <point x="467.1097811391984" y="874.0"/>
      <point x="476.10245715533006" y="925.0" type="qcurve" smooth="yes"/>
      <point x="485.4477871328787" y="978.0"/>
      <point x="444.49842503326124" y="1035.0"/>
      <point x="371.32209805255275" y="1034.0" type="qcurve" smooth="yes"/>
      <point x="317.32209805255275" y="1034.0" type="line"/>
      <point x="337.07071989190086" y="1146.0" type="line"/>
      <point x="391.0707198919008" y="1146.0" type="line" smooth="yes"/>
      <point x="463.0707198919008" y="1146.0"/>
      <point x="512.8266657151172" y="1207.0"/>
      <point x="521.2903607891235" y="1255.0" type="qcurve" smooth="yes"/>
      <point x="529.7540558631299" y="1303.0"/>
      <point x="487.7467318792616" y="1354.0"/>
      <point x="440.7467318792616" y="1354.0" type="qcurve" smooth="yes"/>
      <point x="391.7467318792616" y="1354.0"/>
      <point x="330.2830368052553" y="1306.0"/>
      <point x="322.34832267337435" y="1261.0" type="qcurve"/>
      <point x="165.34832267337435" y="1261.0" type="line"/>
      <point x="184.56796357059704" y="1370.0"/>
      <point x="338.1982203134874" y="1487.0"/>
      <point x="461.19822031348735" y="1487.0" type="qcurve" smooth="yes"/>
      <point x="589.1982203134874" y="1487.0"/>
      <point x="706.7442905513055" y="1371.0"/>
      <point x="687.7009766347912" y="1263.0" type="qcurve" smooth="yes"/>
      <point x="678.7083006186596" y="1212.0"/>
      <point x="599.4862183934808" y="1120.0"/>
      <point x="535.6070248178945" y="1098.0" type="qcurve"/>
      <point x="599.5515042615998" y="1075.0"/>
      <point x="649.3294220364211" y="983.0"/>
      <point x="637.6918413096623" y="917.0" type="qcurve" smooth="yes"/>
      <point x="618.1195464510228" y="806.0"/>
      <point x="453.96030876600696" y="686.0"/>
      <point x="320.96030876600696" y="686.0" type="qcurve" smooth="yes"/>
      <point x="191.96030876600696" y="686.0"/>
      <point x="73.94321947031432" y="805.0"/>
    </contour>
  </outline>
</glyph>
<glyph name="paragraph" format="2">
  <advance width="1058"/>
  <unicode hex="00B6"/>
  <guideline x="30.870609618326938" y="901.0" angle="0.0" identifier="27539Lsr1A"/>
  <guideline x="-30.138525706801943" y="555.0" angle="0.0" identifier="e34wUdCmXR"/>
  <outline>
    <contour>
      <point x="436.2562608165641" y="-146.0" type="line"/>
      <point x="260.2562608165641" y="-146.0" type="line"/>
      <point x="412.2501181872609" y="716.0" type="line"/>
      <point x="325.2501181872609" y="716.0" type="line" smooth="yes"/>
      <point x="208.2501181872609" y="716.0"/>
      <point x="94.92613017462165" y="924.0"/>
      <point x="123.49110104939297" y="1086.0" type="qcurve" smooth="yes"/>
      <point x="152.05607192416426" y="1248.0"/>
      <point x="338.732083911525" y="1456.0"/>
      <point x="455.732083911525" y="1456.0" type="qcurve" smooth="yes"/>
      <point x="718.732083911525" y="1456.0" type="line"/>
    </contour>
    <contour>
      <point x="861.2610648536504" y="1459.0" type="line"/>
      <point x="1037.2610648536504" y="1459.0" type="line"/>
      <point x="754.2562608165641" y="-146.0" type="line"/>
      <point x="578.2562608165641" y="-146.0" type="line"/>
    </contour>
  </outline>
</glyph>
<glyph name="onesuperior" format="2">
  <advance width="661"/>
  <unicode hex="00B9"/>
  <outline>
    <contour>
      <point x="208.53197363795107" y="1211.0" type="line"/>
      <point x="236.56796357059704" y="1370.0" type="line"/>
      <point x="541.021893332779" y="1486.0" type="line"/>
      <point x="585.021893332779" y="1486.0" type="line"/>
      <point x="445.89990555380007" y="697.0" type="line"/>
      <point x="283.89990555380007" y="697.0" type="line"/>
      <point x="386.3458813454182" y="1278.0" type="line"/>
    </contour>
  </outline>
</glyph>
<glyph name="AE" format="2">
  <advance width="1692"/>
  <unicode hex="00C6"/>
  <anchor x="993" y="1456" name="top"/>
  <outline>
    <contour>
      <point x="208.00669399717276" y="363.0" type="line"/>
      <point x="335.1610490262764" y="517.0" type="line"/>
      <point x="898.1610490262765" y="517.0" type="line"/>
      <point x="871.0066939971728" y="363.0" type="line"/>
    </contour>
    <contour>
      <point x="-128.0" y="0.0" type="line"/>
      <point x="890.732083911525" y="1456.0" type="line"/>
      <point x="1742.732083911525" y="1456.0" type="line"/>
      <point x="1715.75405586313" y="1303.0" type="line"/>
      <point x="1115.75405586313" y="1303.0" type="line"/>
      <point x="1031.998740026609" y="828.0" type="line"/>
      <point x="1539.998740026609" y="828.0" type="line"/>
      <point x="1512.8443849975054" y="674.0" type="line"/>
      <point x="1004.8443849975054" y="674.0" type="line"/>
      <point x="912.9780280483951" y="153.0" type="line"/>
      <point x="1522.9780280483951" y="153.0" type="line"/>
      <point x="1496.0" y="0.0" type="line"/>
      <point x="702.0" y="0.0" type="line"/>
      <point x="923.8193417312489" y="1258.0" type="line"/>
      <point x="54.0" y="0.0" type="line"/>
    </contour>
  </outline>
</glyph>
<glyph name="Thorn" format="2">
  <advance width="1084"/>
  <unicode hex="00DE"/>
  <guideline x="30.870609618326938" y="901.0" angle="0.0" identifier="i9jYwjBDP4"/>
  <guideline x="-30.138525706801943" y="555.0" angle="0.0" identifier="T8KKW8oxop"/>
  <outline>
    <contour>
      <point x="298.732083911525" y="1456.0" type="line"/>
      <point x="481.732083911525" y="1456.0" type="line"/>
      <point x="430.42093252536165" y="1165.0" type="line"/>
      <point x="651.4209325253616" y="1165.0" type="line" smooth="yes"/>
      <point x="861.4209325253616" y="1165.0"/>
      <point x="1049.2739014801264" y="960.0"/>
      <point x="1010.6582927049726" y="741.0" type="qcurve" smooth="yes"/>
      <point x="972.0426839298186" y="522.0"/>
      <point x="711.0140179810411" y="312.0"/>
      <point x="500.8376910003326" y="311.0" type="qcurve" smooth="yes"/>
      <point x="280.8376910003326" y="311.0" type="line"/>
      <point x="226.0" y="0.0" type="line"/>
      <point x="42.0" y="0.0" type="line"/>
    </contour>
    <contour>
      <point x="624.4429044769665" y="1012.0" type="qcurve" smooth="yes"/>
      <point x="404.44290447696653" y="1012.0" type="line"/>
      <point x="307.9920460294362" y="465.0" type="line"/>
      <point x="527.9920460294362" y="465.0" type="line" smooth="yes"/>
      <point x="666.9920460294362" y="465.0"/>
      <point x="804.441093135706" y="615.0"/>
      <point x="826.6582927049726" y="741.0" type="qcurve" smooth="yes"/>
      <point x="849.0518192549475" y="868.0"/>
      <point x="763.2665774962582" y="1011.0"/>
    </contour>
  </outline>
</glyph>
<glyph name="germandbls" format="2">
  <advance width="1178"/>
  <unicode hex="00DF"/>
  <outline>
    <contour>
      <point x="391.54906293364377" y="1092.0" type="qcurve" name="hr00"/>
      <point x="199.0" y="0.0" type="line"/>
      <point x="20.0" y="0.0" type="line"/>
      <point x="212.54906293364377" y="1092.0" type="line" smooth="yes"/>
      <point x="248.34344001746217" y="1295.0"/>
      <point x="498.48558840678527" y="1534.0"/>
      <point x="697.4855884067853" y="1534.0" type="qcurve" smooth="yes"/>
      <point x="861.4855884067853" y="1534.0"/>
      <point x="1008.9810207442208" y="1361.0"/>
      <point x="983.237281560785" y="1215.0" type="qcurve" smooth="yes"/>
      <point x="967.72050725844" y="1127.0"/>
      <point x="908.1482123998005" y="1016.0"/>
      <point x="863.5661522293365" y="973.0" type="qcurve" smooth="yes"/>
      <point x="824.8657269624148" y="935.0"/>
      <point x="757.4648764285714" y="859.0"/>
      <point x="752.351393988026" y="830.0" type="qcurve" smooth="yes"/>
      <point x="743.8876989140197" y="782.0"/>
      <point x="844.0786738624647" y="681.0"/>
      <point x="914.1464010585398" y="619.0" type="qcurve" smooth="yes"/>
      <point x="981.7431091967403" y="560.0"/>
      <point x="1042.4703890711792" y="411.0"/>
      <point x="1019.724208559787" y="282.0" type="qcurve" smooth="yes"/>
      <point x="993.9804693763513" y="136.0"/>
      <point x="787.4734603858307" y="-20.0"/>
      <point x="621.4734603858307" y="-20.0" type="qcurve" smooth="yes"/>
      <point x="466.47346038583066" y="-20.0"/>
      <point x="327.62781541493433" y="134.0"/>
      <point x="353.0189006369533" y="278.0" type="qcurve" smooth="yes"/>
      <point x="357.60340213537336" y="304.0" type="line"/>
      <point x="520.6034021353734" y="304.0" type="line"/>
      <point x="519.0164593089971" y="295.0" type="line" smooth="yes"/>
      <point x="505.0866278330284" y="216.0"/>
      <point x="573.0988344728089" y="131.0"/>
      <point x="650.0988344728089" y="131.0" type="qcurve" smooth="yes"/>
      <point x="731.0988344728089" y="131.0"/>
      <point x="833.7919357558623" y="220.0"/>
      <point x="848.2507481739565" y="302.0" type="qcurve" smooth="yes"/>
      <point x="860.4173098428405" y="371.0"/>
      <point x="798.1683730101447" y="466.0"/>
      <point x="749.2794141227341" y="512.0" type="qcurve" smooth="yes"/>
      <point x="687.3300520231165" y="569.0"/>
      <point x="559.4868483801763" y="706.0"/>
      <point x="575.5326036246465" y="797.0" type="qcurve" smooth="yes"/>
      <point x="588.580800197073" y="871.0"/>
      <point x="681.1530950557126" y="982.0"/>
      <point x="720.911482206885" y="1026.0" type="qcurve" smooth="yes"/>
      <point x="756.9645614352237" y="1066.0"/>
      <point x="796.5997008340263" y="1149.0"/>
      <point x="806.2976847729918" y="1204.0" type="qcurve" smooth="yes"/>
      <point x="821.9907860560452" y="1293.0"/>
      <point x="748.860214319807" y="1383.0"/>
      <point x="666.860214319807" y="1383.0" type="qcurve" smooth="yes"/>
      <point x="563.860214319807" y="1383.0"/>
      <point x="417.821783059205" y="1241.0"/>
    </contour>
  </outline>
</glyph>
<glyph name="ae" format="2">
  <advance width="1499"/>
  <unicode hex="00E6"/>
  <anchor x="900.0" y="1052" name="top"/>
  <outline>
    <contour>
      <point x="194.30871005820723" y="308.0" type="qcurve" smooth="yes"/>
      <point x="177.38131991019458" y="212.0"/>
      <point x="243.86454560784966" y="124.0"/>
      <point x="322.86454560784966" y="124.0" type="qcurve" smooth="yes"/>
      <point x="406.86454560784966" y="124.0"/>
      <point x="570.847456312157" y="243.0"/>
      <point x="588.6564813637119" y="344.0" type="qcurve" smooth="yes"/>
      <point x="619.3373760069849" y="518.0" type="line"/>
      <point x="454.33737600698487" y="518.0" type="line" smooth="yes"/>
      <point x="346.33737600698487" y="518.0"/>
      <point x="213.70467793613835" y="418.0"/>
    </contour>
    <contour>
      <point x="16.308710058207225" y="308.0" type="qcurve" smooth="yes"/>
      <point x="45.402661875103945" y="473.0"/>
      <point x="281.9072295376684" y="646.0"/>
      <point x="459.9072295376684" y="646.0" type="qcurve" smooth="yes"/>
      <point x="641.9072295376684" y="646.0" type="line"/>
      <point x="654.9554261100948" y="720.0" type="line" smooth="yes"/>
      <point x="672.0591432388159" y="817.0"/>
      <point x="619.3947079045402" y="938.0"/>
      <point x="528.3947079045402" y="938.0" type="qcurve" smooth="yes"/>
      <point x="437.39470790454016" y="938.0"/>
      <point x="340.5856828529852" y="837.0"/>
      <point x="328.77177514551806" y="770.0" type="qcurve" smooth="yes"/>
      <point x="327.8901402419757" y="765.0" type="line"/>
      <point x="150.8901402419757" y="765.0" type="line"/>
      <point x="151.77177514551806" y="770.0" type="line" smooth="yes"/>
      <point x="175.57591754116083" y="905.0"/>
      <point x="396.78579312655916" y="1082.0"/>
      <point x="557.7857931265592" y="1082.0" type="qcurve" smooth="yes"/>
      <point x="655.7857931265592" y="1082.0"/>
      <point x="789.0298473033428" y="1021.0"/>
      <point x="818.5685935572925" y="956.0" type="qcurve"/>
      <point x="882.3245393805089" y="1017.0"/>
      <point x="1037.7857931265592" y="1082.0"/>
      <point x="1124.7857931265592" y="1082.0" type="qcurve" smooth="yes"/>
      <point x="1307.7857931265592" y="1082.0"/>
      <point x="1459.5881241809413" y="820.0"/>
      <point x="1413.7431091967403" y="560.0" type="qcurve" smooth="yes"/>
      <point x="1400.694912624314" y="486.0" type="line"/>
      <point x="712.6949126243139" y="486.0" type="line"/>
      <point x="738.0859978463329" y="630.0" type="line"/>
      <point x="1246.085997846333" y="630.0" type="line"/>
      <point x="1249.7888644412108" y="651.0" type="line" smooth="yes"/>
      <point x="1271.124429106935" y="772.0"/>
      <point x="1208.6893999817062" y="934.0"/>
      <point x="1098.6893999817062" y="934.0" type="qcurve" smooth="yes"/>
      <point x="987.6893999817062" y="934.0"/>
      <point x="840.479524396308" y="757.0"/>
      <point x="807.859032965242" y="572.0" type="qcurve" smooth="yes"/>
      <point x="791.6369507400632" y="480.0" type="line" smooth="yes"/>
      <point x="760.4270751546649" y="303.0"/>
      <point x="842.8065837235989" y="118.0"/>
      <point x="970.8065837235988" y="118.0" type="qcurve" smooth="yes"/>
      <point x="1059.8065837235988" y="118.0"/>
      <point x="1187.323358025944" y="206.0"/>
      <point x="1235.7266498877432" y="265.0" type="qcurve"/>
      <point x="1352.7968184117744" y="186.0" type="line"/>
      <point x="1288.2220822251788" y="92.0"/>
      <point x="1081.710190578746" y="-30.0"/>
      <point x="954.710190578746" y="-30.0" type="qcurve" smooth="yes"/>
      <point x="832.710190578746" y="-30.0"/>
      <point x="669.9902346881756" y="68.0"/>
      <point x="633.3886438940629" y="161.0" type="qcurve"/>
      <point x="563.871869591718" y="73.0"/>
      <point x="374.4734603858307" y="-20.0"/>
      <point x="265.4734603858307" y="-20.0" type="qcurve" smooth="yes"/>
      <point x="136.47346038583072" y="-20.0"/>
      <point x="-13.490549681523362" y="139.0"/>
    </contour>
  </outline>
</glyph>
<glyph name="eth" format="2">
  <advance width="1014"/>
  <unicode hex="00F0"/>
  <outline>
    <contour>
      <point x="340.97125543239645" y="1429.0" type="qcurve"/>
      <point x="421.7729565000832" y="1581.0" type="line"/>
      <point x="726.2537408697822" y="1510.0"/>
      <point x="980.6771933419259" y="1019.0"/>
      <point x="912.6149787884583" y="633.0" type="qcurve"/>
      <point x="895.3349346790287" y="535.0" type="line"/>
      <point x="851.9584974247464" y="289.0"/>
      <point x="581.4734603858307" y="-20.0"/>
      <point x="379.4734603858307" y="-20.0" type="qcurve" smooth="yes"/>
      <point x="169.47346038583072" y="-20.0"/>
      <point x="3.7266498877432355" y="265.0"/>
      <point x="39.52102697156161" y="468.0" type="qcurve" smooth="yes"/>
      <point x="80.07623253450856" y="698.0"/>
      <point x="334.4477871328787" y="978.0"/>
      <point x="527.4477871328787" y="978.0" type="qcurve" smooth="yes"/>
      <point x="696.4477871328787" y="978.0"/>
      <point x="836.8925815699317" y="748.0"/>
      <point x="813.0884391742891" y="613.0" type="qcurve"/>
      <point x="744.2647661549975" y="614.0" type="line"/>
      <point x="760.8395023415932" y="708.0"/>
      <point x="648.351393988026" y="830.0"/>
      <point x="545.351393988026" y="830.0" type="qcurve" smooth="yes"/>
      <point x="399.35139398802596" y="830.0"/>
      <point x="249.43865180774986" y="632.0"/>
      <point x="220.52102697156158" y="468.0" type="qcurve" smooth="yes"/>
      <point x="198.8328083444204" y="345.0"/>
      <point x="266.80658372359886" y="118.0"/>
      <point x="407.8065837235989" y="118.0" type="qcurve" smooth="yes"/>
      <point x="535.8065837235989" y="118.0"/>
      <point x="684.0066939971728" y="363.0"/>
      <point x="714.3349346790287" y="535.0" type="qcurve" smooth="yes"/>
      <point x="731.9676327498753" y="635.0" type="line" smooth="yes"/>
      <point x="792.8004410942957" y="980.0"/>
      <point x="585.1573477249293" y="1362.0"/>
    </contour>
    <contour>
      <point x="960.6186014709795" y="1427.0" type="line"/>
      <point x="459.0829265316813" y="1061.0" type="line"/>
      <point x="397.2421642166971" y="1181.0" type="line"/>
      <point x="898.6015121752869" y="1546.0" type="line"/>
    </contour>
  </outline>
</glyph>
<glyph name="schwa" format="2">
  <advance width="980"/>
  <unicode hex="0259"/>
  <outline>
    <contour>
      <point x="862.5692235439881" y="542.0" type="qcurve" smooth="yes"/>
      <point x="856.9267601613171" y="510.0" type="line" smooth="yes"/>
      <point x="811.0817451771162" y="250.0"/>
      <point x="535.710190578746" y="-30.0"/>
      <point x="325.71019057874605" y="-30.0" type="qcurve" smooth="yes"/>
      <point x="129.71019057874605" y="-30.0"/>
      <point x="-33.68152462996841" y="240.0"/>
      <point x="10.752874508564787" y="492.0" type="qcurve" smooth="yes"/>
      <point x="24.153725042408098" y="568.0" type="line"/>
      <point x="753.1537250424082" y="568.0" type="line"/>
      <point x="727.0573318975553" y="420.0" type="line"/>
      <point x="186.0573318975553" y="420.0" type="line"/>
      <point x="180.82548436055214" y="396.0" type="line"/>
      <point x="158.55032290703474" y="264.0"/>
      <point x="243.51189164643273" y="122.0"/>
      <point x="344.51189164643273" y="122.0" type="qcurve" smooth="yes"/>
      <point x="466.5118916464327" y="122.0"/>
      <point x="633.9536147688342" y="323.0"/>
      <point x="666.9267601613171" y="510.0" type="qcurve" smooth="yes"/>
      <point x="672.5692235439881" y="542.0" type="line" smooth="yes"/>
      <point x="705.542368936471" y="729.0"/>
      <point x="597.9840920588724" y="930.0"/>
      <point x="464.9840920588724" y="930.0" type="qcurve" smooth="yes"/>
      <point x="398.9840920588724" y="930.0"/>
      <point x="255.4069145443206" y="853.0"/>
      <point x="189.8876989140196" y="782.0" type="qcurve"/>
      <point x="86.63876208132379" y="877.0" type="line"/>
      <point x="170.09513317146184" y="976.0"/>
      <point x="379.7857931265591" y="1082.0"/>
      <point x="491.78579312655916" y="1082.0" type="qcurve" smooth="yes"/>
      <point x="716.7857931265592" y="1082.0"/>
      <point x="908.4142385281889" y="802.0"/>
    </contour>
  </outline>
</glyph>
<glyph name="primemod" format="2">
  <advance width="600"/>
  <unicode hex="02B9"/>
  <outline>
    <contour>
      <point x="360.8431250241144" y="1502.0" type="line"/>
      <point x="549.8431250241144" y="1502.0" type="line"/>
      <point x="340.7400378820888" y="991.0" type="line"/>
      <point x="219.62167278563112" y="996.0" type="line"/>
    </contour>
  </outline>
</glyph>
<glyph name="caron" format="2">
  <advance width="1024"/>
  <unicode hex="02C7"/>
  <outline>
    <contour>
      <point x="539.5948181781141" y="1183.0" type="line"/>
      <point x="346.7851631398636" y="1496.0" type="line"/>
      <point x="500.7851631398636" y="1496.0" type="line"/>
      <point x="622.7491732072176" y="1337.0" type="line"/>
      <point x="799.7851631398636" y="1496.0" type="line"/>
      <point x="951.7851631398635" y="1496.0" type="line"/>
      <point x="651.5948181781141" y="1183.0" type="line"/>
    </contour>
  </outline>
</glyph>
<glyph name="breve" format="2">
  <advance width="1022"/>
  <unicode hex="02D8"/>
  <outline>
    <contour>
      <point x="893.6643567154499" y="1518.0" type="qcurve"/>
      <point x="979.1426997571928" y="1464.0" type="line"/>
      <point x="926.6863286670546" y="1365.0"/>
      <point x="722.239722888741" y="1198.0"/>
      <point x="596.239722888741" y="1198.0" type="qcurve" smooth="yes"/>
      <point x="483.23972288874097" y="1198.0"/>
      <point x="329.2177509371362" y="1351.0"/>
      <point x="307.3190267379012" y="1465.0" type="qcurve"/>
      <point x="420.6643567154499" y="1518.0" type="line"/>
      <point x="445.6137188150674" y="1461.0"/>
      <point x="547.1573477249293" y="1362.0"/>
      <point x="626.1573477249293" y="1362.0" type="qcurve" smooth="yes"/>
      <point x="710.1573477249293" y="1362.0"/>
      <point x="846.9084108922334" y="1457.0"/>
    </contour>
  </outline>
</glyph>
<glyph name="dotaccent" format="2">
  <advance width="1024"/>
  <unicode hex="02D9"/>
  <outline>
    <contour>
      <point x="500.4544811300516" y="1335.0" type="qcurve" smooth="yes"/>
      <point x="508.212868281224" y="1379.0"/>
      <point x="586.9084108922334" y="1451.0"/>
      <point x="640.9084108922334" y="1451.0" type="qcurve" smooth="yes"/>
      <point x="693.9084108922334" y="1451.0"/>
      <point x="748.212868281224" y="1379.0"/>
      <point x="740.4544811300516" y="1335.0" type="qcurve" smooth="yes"/>
      <point x="732.696093978879" y="1291.0"/>
      <point x="653.176878348578" y="1220.0"/>
      <point x="600.176878348578" y="1220.0" type="qcurve" smooth="yes"/>
      <point x="546.176878348578" y="1220.0"/>
      <point x="492.69609397887905" y="1291.0"/>
    </contour>
  </outline>
</glyph>
<glyph name="ogonek" format="2">
  <advance width="1024"/>
  <unicode hex="02DB"/>
  <outline>
    <contour>
      <point x="415" y="70.0" type="qcurve"/>
      <point x="479.0" y="13.0" type="line"/>
      <point x="407" y="-35.0"/>
      <point x="280" y="-144.0"/>
      <point x="269" y="-209.0" type="qcurve" smooth="yes"/>
      <point x="263" y="-242.0"/>
      <point x="291" y="-282.0"/>
      <point x="334" y="-282.0" type="qcurve" smooth="yes"/>
      <point x="367" y="-282.0"/>
      <point x="422" y="-263.0"/>
      <point x="439" y="-255.0" type="qcurve"/>
      <point x="431" y="-377.0" type="line"/>
      <point x="404" y="-392.0"/>
      <point x="321" y="-421.0"/>
      <point x="262" y="-421.0" type="qcurve" smooth="yes"/>
      <point x="181" y="-421.0"/>
      <point x="88" y="-323.0"/>
      <point x="104" y="-230.0" type="qcurve" smooth="yes"/>
      <point x="118" y="-150.0"/>
      <point x="268" y="7.0"/>
    </contour>
  </outline>
</glyph>
<glyph name="tilde" format="2">
  <advance width="1024"/>
  <unicode hex="02DC"/>
  <outline>
    <contour>
      <point x="256.5197669981706" y="1296.0" type="line"/>
      <point x="300.62836678280394" y="1359.0"/>
      <point x="455.9084108922334" y="1457.0"/>
      <point x="522.9084108922334" y="1457.0" type="qcurve" smooth="yes"/>
      <point x="563.9084108922334" y="1457.0"/>
      <point x="634.5002363745218" y="1432.0"/>
      <point x="667.2683888375186" y="1408.0" type="qcurve" smooth="yes"/>
      <point x="697.3891952619324" y="1386.0"/>
      <point x="767.63080811076" y="1342.0"/>
      <point x="805.63080811076" y="1342.0" type="qcurve" smooth="yes"/>
      <point x="845.63080811076" y="1342.0"/>
      <point x="924.9761380883087" y="1395.0"/>
      <point x="954.3239093938134" y="1431.0" type="qcurve"/>
      <point x="1018.0438652843839" y="1333.0" type="line"/>
      <point x="967.5246496540829" y="1262.0"/>
      <point x="821.8291070430733" y="1190.0"/>
      <point x="764.8291070430733" y="1190.0" type="qcurve" smooth="yes"/>
      <point x="715.8291070430733" y="1190.0"/>
      <point x="629.4111672135373" y="1233.0"/>
      <point x="601.4087258855812" y="1250.0" type="qcurve" smooth="yes"/>
      <point x="570.7589385190421" y="1269.0"/>
      <point x="508.7540558631299" y="1303.0"/>
      <point x="479.7540558631299" y="1303.0" type="qcurve" smooth="yes"/>
      <point x="432.7540558631299" y="1303.0"/>
      <point x="339.0585132521204" y="1231.0"/>
      <point x="316.29768477299183" y="1204.0" type="qcurve"/>
    </contour>
  </outline>
</glyph>
<glyph name="hungarumlaut" format="2">
  <advance width="1024"/>
  <unicode hex="02DD"/>
  <guideline x="30.870609618326938" y="901.0" angle="0.0" identifier="1emCWSQy5G"/>
  <guideline x="-30.138525706801943" y="555.0" angle="0.0" identifier="s1MFYmxmed"/>
  <outline>
    <contour>
      <point x="441.4618051139198" y="1290.0" type="line"/>
      <point x="715.3019374422086" y="1584.0" type="line"/>
      <point x="828.7876044678196" y="1479.0" type="line"/>
      <point x="505.29768477299183" y="1204.0" type="line"/>
    </contour>
    <contour>
      <point x="727.4618051139198" y="1290.0" type="line"/>
      <point x="1001.3019374422086" y="1584.0" type="line"/>
      <point x="1114.7876044678196" y="1479.0" type="line"/>
      <point x="790.2976847729918" y="1204.0" type="line"/>
    </contour>
  </outline>
</glyph>
<glyph name="breveinvertedcomb" format="2">
  <advance width="1024"/>
  <unicode hex="030F"/>
  <anchor x="512.0" y="1052" name="_top"/>
  <anchor x="512.0" y="1540" name="top"/>
  <outline>
    <contour>
      <point x="372" y="1198" type="qcurve"/>
      <point x="287" y="1252" type="line"/>
      <point x="339" y="1351"/>
      <point x="544" y="1518"/>
      <point x="670" y="1518" type="qcurve" smooth="yes"/>
      <point x="783" y="1518"/>
      <point x="937" y="1365"/>
      <point x="959" y="1251" type="qcurve"/>
      <point x="845" y="1198" type="line"/>
      <point x="820" y="1255"/>
      <point x="719" y="1354"/>
      <point x="640" y="1354" type="qcurve" smooth="yes"/>
      <point x="556" y="1354"/>
      <point x="419" y="1259"/>
    </contour>
  </outline>
</glyph>
<glyph name="emdash" format="2">
  <advance width="1968"/>
  <unicode hex="2014"/>
  <outline>
    <contour>
      <point x="225.80595373690335" y="532.0" type="line"/>
      <point x="255.4288864959255" y="700.0" type="line"/>
      <point x="1703.4288864959256" y="700.0" type="line"/>
      <point x="1673.8059537369033" y="532.0" type="line"/>
    </contour>
  </outline>
</glyph>
<glyph name="quotesinglbase" format="2">
  <advance width="410"/>
  <unicode hex="201A"/>
  <outline>
    <contour>
      <point x="228.7919357558623" y="220.0" type="line"/>
      <point x="206.22208222517878" y="92.0" type="line" smooth="yes"/>
      <point x="190.35265396141693" y="2.0"/>
      <point x="63.38194989689009" y="-202.0"/>
      <point x="-30.60828479128554" y="-270.0" type="qcurve"/>
      <point x="-123.7364151995676" y="-197.0" type="line"/>
      <point x="-65.0988344728089" y="-131.0"/>
      <point x="7.4106158456677065" y="8.0"/>
      <point x="21.69310128305338" y="89.0" type="qcurve" smooth="yes"/>
      <point x="44.79193575586231" y="220.0" type="line"/>
    </contour>
  </outline>
</glyph>
<glyph name="daggerdbl" format="2">
  <advance width="1008"/>
  <unicode hex="2021"/>
  <outline>
    <contour>
      <point x="5.7004252669216555" y="38.0" type="line"/>
      <point x="34.97070406452684" y="204.0" type="line"/>
      <point x="340.97070406452684" y="204.0" type="line"/>
      <point x="379.1586076983203" y="534.0" type="line"/>
      <point x="450.75956850573755" y="855.0" type="line"/>
      <point x="149.75956850573755" y="855.0" type="line"/>
      <point x="179.2061742840512" y="1022.0" type="line"/>
      <point x="466.20617428405126" y="1022.0" type="line"/>
      <point x="548.9010869083652" y="1508.0" type="line"/>
      <point x="729.9010869083652" y="1508.0" type="line"/>
      <point x="641.2061742840513" y="1022.0" type="line"/>
      <point x="928.2061742840513" y="1022.0" type="line"/>
      <point x="898.7595685057377" y="855.0" type="line"/>
      <point x="597.7595685057375" y="855.0" type="line"/>
      <point x="556.1586076983203" y="534.0" type="line"/>
      <point x="477.9707040645269" y="204.0" type="line"/>
      <point x="783.9707040645269" y="204.0" type="line"/>
      <point x="754.7004252669217" y="38.0" type="line"/>
      <point x="462.7004252669217" y="38.0" type="line"/>
      <point x="379.30020471977383" y="-452.0" type="line"/>
      <point x="208.30020471977383" y="-452.0" type="line"/>
      <point x="297.7004252669217" y="38.0" type="line"/>
    </contour>
  </outline>
</glyph>
<glyph name="second" format="2">
  <advance width="945"/>
  <unicode hex="2033"/>
  <outline>
    <contour>
      <point x="125.57103488524862" y="939.0" type="line"/>
      <point x="420.2439755579578" y="1578.0" type="line"/>
      <point x="616.7247599276567" y="1507.0" type="line" smooth="yes"/>
      <point x="258.873050946283" y="884.0" type="line"/>
    </contour>
    <contour>
      <point x="525.5710348852487" y="939.0" type="line"/>
      <point x="820.2439755579578" y="1578.0" type="line"/>
      <point x="1016.7247599276566" y="1507.0" type="line" smooth="yes"/>
      <point x="658.873050946283" y="884.0" type="line"/>
    </contour>
  </outline>
</glyph>
<glyph name="guilsinglright" format="2">
  <advance width="595"/>
  <unicode hex="203A"/>
  <guideline x="30.870609618326938" y="901.0" angle="0.0" identifier="Amp5Ormvx4"/>
  <guideline x="-30.138525706801943" y="555.0" angle="0.0" identifier="JDX5vz3jKp"/>
  <outline>
    <contour>
      <point x="-21.021971951604854" y="153.0" type="line"/>
      <point x="257.1561663703642" y="551.0" type="line"/>
      <point x="119.33430469233326" y="949.0" type="line"/>
      <point x="281.33430469233326" y="949.0" type="line"/>
      <point x="461.26964881090964" y="580.0" type="line"/>
      <point x="450.86635694911024" y="521.0" type="line"/>
      <point x="140.97802804839512" y="153.0" type="line"/>
    </contour>
  </outline>
</glyph>
<glyph name="foursuperior" format="2">
  <advance width="681"/>
  <unicode hex="2074"/>
  <outline>
    <contour>
      <point x="88.16774302344919" y="880.0" type="line"/>
      <point x="99.15309505571261" y="982.0" type="line"/>
      <point x="497.7851631398636" y="1496.0" type="line"/>
      <point x="621.7851631398636" y="1496.0" type="line"/>
      <point x="453.9352654997506" y="1270.0" type="line"/>
      <point x="262.09025051554966" y="1010.0" type="line"/>
      <point x="680.0902505155497" y="1010.0" type="line"/>
      <point x="657.1677430234492" y="880.0" type="line"/>
    </contour>
    <contour>
      <point x="657.7851631398636" y="1496.0" type="line"/>
      <point x="516.8999055538001" y="697.0" type="line"/>
      <point x="359.89990555380007" y="697.0" type="line"/>
      <point x="500.7851631398636" y="1496.0" type="line"/>
    </contour>
  </outline>
</glyph>
<glyph name="coloncurrency" format="2">
  <advance width="1158"/>
  <unicode hex="20A1"/>
  <guideline x="148.83335971229002" y="1570.0" angle="0.0" identifier="0DwZ2nfhdf"/>
  <outline>
    <contour>
      <point x="1100.83335971229" y="1570.0" type="line"/>
      <point x="1018.4569224580077" y="1324.0" type="line"/>
      <point x="1001.4014019017129" y="1301.0" type="line"/>
      <point x="611.9902346881756" y="68.0" type="line"/>
      <point x="613.582060170464" y="43.0" type="line"/>
      <point x="559.9591274114418" y="-125.0" type="line"/>
      <point x="400.95912741144184" y="-125.0" type="line"/>
      <point x="453.05307922833856" y="40.0" type="line"/>
      <point x="471.63758072675864" y="66.0" type="line"/>
      <point x="884.9810207442208" y="1361.0" type="line"/>
      <point x="881.5075603583902" y="1381.0" type="line"/>
      <point x="942.8333597122901" y="1570.0" type="line"/>
    </contour>
    <contour>
      <point x="848.8333597122901" y="1570.0" type="line"/>
      <point x="792.9761380883086" y="1395.0" type="line"/>
      <point x="776.2732714934309" y="1374.0" type="line"/>
      <point x="358.6375807267587" y="66.0" type="line"/>
      <point x="359.8767522476301" y="39.0" type="line"/>
      <point x="307.9591274114419" y="-125.0" type="line"/>
      <point x="148.9591274114419" y="-125.0" type="line"/>
      <point x="227.51189164643273" y="122.0" type="line"/>
      <point x="246.0963931448528" y="148.0" type="line"/>
      <point x="638.6259254548478" y="1376.0" type="line"/>
      <point x="635.6814460111425" y="1399.0" type="line"/>
      <point x="690.8333597122901" y="1570.0" type="line"/>
    </contour>
    <contour>
      <point x="107.2550008431731" y="682.0" type="qcurve" smooth="yes"/>
      <point x="123.4770830683519" y="774.0" type="line" smooth="yes"/>
      <point x="187.66010404623313" y="1138.0"/>
      <point x="535.021893332779" y="1486.0"/>
      <point x="770.021893332779" y="1486.0" type="qcurve" smooth="yes"/>
      <point x="992.021893332779" y="1486.0"/>
      <point x="1195.1189164643272" y="1220.0"/>
      <point x="1156.326980708465" y="1000.0" type="qcurve" smooth="yes"/>
      <point x="1154.5637109013803" y="990.0" type="line"/>
      <point x="970.5637109013803" y="990.0" type="line"/>
      <point x="972.326980708465" y="1000.0" type="line" smooth="yes"/>
      <point x="995.073161219857" y="1129.0"/>
      <point x="901.9859034001331" y="1327.0"/>
      <point x="741.985903400133" y="1327.0" type="qcurve" smooth="yes"/>
      <point x="574.985903400133" y="1327.0"/>
      <point x="361.1988503001829" y="1073.0"/>
      <point x="315.706489277399" y="815.0" type="qcurve" smooth="yes"/>
      <point x="285.20192161483453" y="642.0" type="line" smooth="yes"/>
      <point x="241.6491573798437" y="395.0"/>
      <point x="377.74618051139197" y="129.0"/>
      <point x="529.746180511392" y="129.0" type="qcurve" smooth="yes"/>
      <point x="673.746180511392" y="129.0"/>
      <point x="848.8932115566273" y="334.0"/>
      <point x="876.40510320306" y="456.0" type="qcurve"/>
      <point x="878.1683730101447" y="466.0" type="line"/>
      <point x="1062.1683730101447" y="466.0" type="line"/>
      <point x="1060.40510320306" y="456.0" type="line" smooth="yes"/>
      <point x="1021.6131674471978" y="236.0"/>
      <point x="724.710190578746" y="-30.0"/>
      <point x="502.71019057874605" y="-30.0" type="qcurve" smooth="yes"/>
      <point x="265.71019057874605" y="-30.0"/>
      <point x="43.9536147688342" y="323.0"/>
    </contour>
  </outline>
</glyph>
<glyph name="franc" format="2">
  <advance width="1000"/>
  <unicode hex="20A3"/>
  <outline>
    <contour>
      <point x="42.0" y="0.0" type="line"/>
      <point x="298.732083911525" y="1456.0" type="line"/>
      <point x="1070.732083911525" y="1456.0" type="line"/>
      <point x="1043.75405586313" y="1303.0" type="line"/>
      <point x="455.7540558631299" y="1303.0" type="line"/>
      <point x="377.2885494478629" y="858.0" type="line"/>
      <point x="881.2885494478629" y="858.0" type="line"/>
      <point x="854.4868483801763" y="706.0" type="line"/>
      <point x="350.4868483801763" y="706.0" type="line"/>
      <point x="226.0" y="0.0" type="line"/>
    </contour>
    <contour>
      <point x="-55.10190578746051" y="300.0" type="line"/>
      <point x="-28.652858681190764" y="450.0" type="line"/>
      <point x="636.3471413188092" y="450.0" type="line"/>
      <point x="609.8980942125395" y="300.0" type="line"/>
    </contour>
  </outline>
</glyph>
<glyph name="lira" format="2">
  <advance width="933"/>
  <unicode hex="20A4"/>
  <outline>
    <contour>
      <point x="800.0" y="0.0" type="line"/>
      <point x="-92.0" y="0.0" type="line"/>
      <point x="-63.7876830866456" y="160.0" type="line"/>
      <point x="-7.7876830866456" y="160.0" type="line" smooth="yes"/>
      <point x="84.21231691335439" y="160.0"/>
      <point x="193.12994174954264" y="324.0"/>
      <point x="204.34469999085314" y="467.0" type="qcurve" smooth="yes"/>
      <point x="250.2037329560951" y="1039.0" type="line" smooth="yes"/>
      <point x="267.40872588558125" y="1250.0"/>
      <point x="481.25862352569425" y="1476.0"/>
      <point x="663.2586235256942" y="1476.0" type="qcurve" smooth="yes"/>
      <point x="833.2586235256942" y="1476.0"/>
      <point x="982.2275162489605" y="1283.0"/>
      <point x="950.4886597214368" y="1103.0" type="qcurve" smooth="yes"/>
      <point x="947.6674280301015" y="1087.0" type="line"/>
      <point x="755.6674280301014" y="1087.0" type="line"/>
      <point x="758.4886597214369" y="1103.0" type="line" smooth="yes"/>
      <point x="775.945030811575" y="1202.0"/>
      <point x="712.8120177473807" y="1309.0"/>
      <point x="635.8120177473807" y="1309.0" type="qcurve" smooth="yes"/>
      <point x="550.8120177473807" y="1309.0"/>
      <point x="449.1262404481955" y="1169.0"/>
      <point x="438.2037329560951" y="1039.0" type="qcurve" smooth="yes"/>
      <point x="395.57410619990026" y="508.0" type="line" smooth="yes"/>
      <point x="384.593636823549" y="372.0"/>
      <point x="300.49968500665227" y="207.0"/>
      <point x="223.27027879760522" y="166.0" type="qcurve"/>
      <point x="829.2702787976052" y="166.0" type="line"/>
    </contour>
    <contour>
      <point x="731.5954481648096" y="769.0" type="line"/>
      <point x="59.59544816480957" y="769.0" type="line"/>
      <point x="83.75224452186927" y="906.0" type="line"/>
      <point x="755.7522445218692" y="906.0" type="line"/>
    </contour>
    <contour>
      <point x="673.4075445310161" y="439.0" type="line"/>
      <point x="1.4075445310161285" y="439.0" type="line"/>
      <point x="25.564340888075833" y="576.0" type="line"/>
      <point x="697.5643408880758" y="576.0" type="line"/>
    </contour>
  </outline>
</glyph>
<glyph name="peseta" format="2">
  <advance width="1594"/>
  <unicode hex="20A7"/>
  <outline>
    <contour>
      <point x="517.3300520231165" y="569.0" type="qcurve"/>
      <point x="283.33005202311654" y="569.0" type="line"/>
      <point x="308.72113724513554" y="713.0" type="line"/>
      <point x="542.7211372451355" y="713.0" type="line"/>
      <point x="715.7211372451355" y="713.0"/>
      <point x="852.51795565691" y="899.0"/>
      <point x="871.9139235348412" y="1009.0" type="qcurve"/>
      <point x="891.6625453741892" y="1121.0"/>
      <point x="820.6356907666722" y="1308.0"/>
      <point x="647.6356907666722" y="1308.0" type="qcurve"/>
      <point x="454.63569076667216" y="1308.0" type="line"/>
      <point x="224.0" y="0.0" type="line"/>
      <point x="39.0" y="0.0" type="line"/>
      <point x="295.732083911525" y="1456.0" type="line"/>
      <point x="673.732083911525" y="1456.0" type="line"/>
      <point x="919.732083911525" y="1456.0"/>
      <point x="1091.945030811575" y="1202.0"/>
      <point x="1058.2665774962582" y="1011.0" type="qcurve"/>
      <point x="1024.4117972002327" y="819.0"/>
      <point x="763.3300520231165" y="569.0"/>
    </contour>
    <contour>
      <point x="978.2257049077" y="886.0" type="line"/>
      <point x="1002.5588282454682" y="1024.0" type="line"/>
      <point x="1568.5588282454682" y="1024.0" type="line"/>
      <point x="1544.2257049077" y="886.0" type="line"/>
    </contour>
    <contour>
      <point x="1260.1597890528853" y="1345.0" type="line"/>
      <point x="1438.1597890528853" y="1345.0" type="line"/>
      <point x="1245.6107261192417" y="253.0" type="line" smooth="yes"/>
      <point x="1232.2098755853983" y="177.0"/>
      <point x="1267.0408725885582" y="125.0"/>
      <point x="1316.0408725885582" y="125.0" type="qcurve" smooth="yes"/>
      <point x="1339.0408725885582" y="125.0"/>
      <point x="1383.6278154149343" y="134.0"/>
      <point x="1408.038431260602" y="142.0" type="qcurve"/>
      <point x="1383.0" y="0.0" type="line"/>
      <point x="1358.8840762314985" y="-12.0"/>
      <point x="1284.710190578746" y="-30.0"/>
      <point x="1241.710190578746" y="-30.0" type="qcurve" smooth="yes"/>
      <point x="1139.710190578746" y="-30.0"/>
      <point x="1042.395967877931" y="110.0"/>
      <point x="1068.8450149842008" y="260.0" type="qcurve"/>
    </contour>
  </outline>
</glyph>
<glyph name="Euro" format="2">
  <advance width="981"/>
  <unicode hex="20AC"/>
  <outline>
    <contour>
      <point x="769.3294220364211" y="983.0" type="line"/>
      <point x="745.5277209687345" y="831.0" type="line"/>
      <point x="40.5277209687344" y="831.0" type="line"/>
      <point x="67.32942203642108" y="983.0" type="line"/>
    </contour>
    <contour>
      <point x="714.8468263254615" y="657.0" type="line"/>
      <point x="688.2214522384833" y="506.0" type="line"/>
      <point x="-16.77854776151672" y="506.0" type="line"/>
      <point x="9.846826325461507" y="657.0" type="line"/>
    </contour>
    <contour>
      <point x="130.92187750540495" y="544.0" type="qcurve" smooth="yes"/>
      <point x="194.22326357974384" y="903.0" type="line" smooth="yes"/>
      <point x="243.59481817811405" y="1183.0"/>
      <point x="530.669239371362" y="1484.0"/>
      <point x="747.669239371362" y="1484.0" type="qcurve" smooth="yes"/>
      <point x="840.669239371362" y="1484.0"/>
      <point x="994.2683888375186" y="1408.0"/>
      <point x="1045.7491732072176" y="1337.0" type="qcurve"/>
      <point x="905.6503387344087" y="1206.0" type="line"/>
      <point x="870.1140338084151" y="1254.0"/>
      <point x="779.2830368052553" y="1306.0"/>
      <point x="730.2830368052553" y="1306.0" type="qcurve" smooth="yes"/>
      <point x="592.2830368052553" y="1306.0"/>
      <point x="407.783351798603" y="1099.0"/>
      <point x="373.7522445218693" y="906.0" type="qcurve" smooth="yes"/>
      <point x="309.3928965632796" y="541.0" type="line" smooth="yes"/>
      <point x="275.7144432479627" y="350.0"/>
      <point x="398.5674122027274" y="145.0"/>
      <point x="546.5674122027274" y="145.0" type="qcurve" smooth="yes"/>
      <point x="591.5674122027274" y="145.0"/>
      <point x="703.3837612381507" y="195.0"/>
      <point x="762.6711293314486" y="242.0" type="qcurve"/>
      <point x="845.2171995692665" y="126.0" type="line"/>
      <point x="770.9926760161317" y="51.0"/>
      <point x="583.710190578746" y="-30.0"/>
      <point x="482.71019057874605" y="-30.0" type="qcurve" smooth="yes"/>
      <point x="264.71019057874605" y="-30.0"/>
      <point x="82.07930384916014" y="267.0"/>
    </contour>
  </outline>
</glyph>
<glyph name="uni20B1" format="2">
  <advance width="984"/>
  <unicode hex="20B1"/>
  <outline>
    <contour>
      <point x="350.2336588782638" y="421.0" type="qcurve" smooth="yes"/>
      <point x="133.23365887826378" y="421.0" type="line"/>
      <point x="160.74066786878427" y="577.0" type="line"/>
      <point x="375.74066786878427" y="577.0" type="line" smooth="yes"/>
      <point x="529.7406678687843" y="577.0"/>
      <point x="673.832178357725" y="759.0"/>
      <point x="706.6289967694994" y="945.0" type="qcurve" smooth="yes"/>
      <point x="739.425815181274" y="1131.0"/>
      <point x="657.2250749210045" y="1300.0"/>
      <point x="503.22507492100453" y="1300.0" type="qcurve" smooth="yes"/>
      <point x="378.2250749210045" y="1300.0" type="line"/>
      <point x="149.0" y="0.0" type="line"/>
      <point x="-39.0" y="0.0" type="line"/>
      <point x="217.73208391152502" y="1456.0" type="line"/>
      <point x="533.732083911525" y="1456.0" type="line" smooth="yes"/>
      <point x="768.732083911525" y="1456.0"/>
      <point x="938.1213577922833" y="1203.0"/>
      <point x="894.392266576584" y="955.0" type="qcurve" smooth="yes"/>
      <point x="853.8370610136371" y="725.0"/>
      <point x="585.2336588782638" y="421.0"/>
    </contour>
    <contour>
      <point x="44.505749017129546" y="984.0" type="line"/>
      <point x="70.77846914269082" y="1133.0" type="line"/>
      <point x="272.7784691426908" y="1133.0" type="line"/>
      <point x="268.3702946249792" y="1108.0" type="line"/>
      <point x="814.3702946249791" y="1108.0" type="line"/>
      <point x="818.7784691426908" y="1133.0" type="line"/>
      <point x="1051.1311231041077" y="1135.0" type="line"/>
      <point x="1024.8584029785466" y="986.0" type="line"/>
      <point x="812.5057490171296" y="984.0" type="line"/>
      <point x="815.1506537277565" y="999.0" type="line"/>
      <point x="249.15065372775655" y="999.0" type="line"/>
      <point x="246.50574901712957" y="984.0" type="line"/>
    </contour>
    <contour>
      <point x="-3.10253577415601" y="714.0" type="line"/>
      <point x="23.170184351405283" y="863.0" type="line"/>
      <point x="225.17018435140528" y="863.0" type="line"/>
      <point x="222.5252796407783" y="848.0" type="line"/>
      <point x="788.5252796407783" y="848.0" type="line"/>
      <point x="791.1701843514053" y="863.0" type="line"/>
      <point x="1003.5228383128222" y="865.0" type="line"/>
      <point x="977.250118187261" y="716.0" type="line"/>
      <point x="724.897464225844" y="714.0" type="line"/>
      <point x="729.1293117628471" y="738.0" type="line"/>
      <point x="203.12931176284712" y="738.0" type="line"/>
      <point x="198.89746422584398" y="714.0" type="line"/>
    </contour>
  </outline>
</glyph>
<glyph name="uni20B2" format="2">
  <advance width="984"/>
  <unicode hex="20B2"/>
  <outline>
    <contour>
      <point x="301.49787366539164" y="-190.0" type="line"/>
      <point x="345.0506379003825" y="57.0" type="line"/>
      <point x="365.519215630301" y="71.0" type="line"/>
      <point x="477.8395023415932" y="708.0" type="line"/>
      <point x="599.8395023415932" y="708.0" type="line"/>
      <point x="487.3428886495925" y="70.0" type="line"/>
      <point x="507.5796188425079" y="60.0" type="line"/>
      <point x="463.4978736653917" y="-190.0" type="line"/>
    </contour>
    <contour>
      <point x="477.8395023415932" y="708.0" type="line"/>
      <point x="589.63080811076" y="1342.0" type="line"/>
      <point x="576.3940779178447" y="1352.0" type="line"/>
      <point x="616.9492834807916" y="1582.0" type="line"/>
      <point x="768.9492834807916" y="1582.0" type="line"/>
      <point x="728.3940779178447" y="1352.0" type="line"/>
      <point x="711.1018271686346" y="1339.0" type="line"/>
      <point x="599.8395023415932" y="708.0" type="line"/>
    </contour>
    <contour>
      <point x="954.8370610136371" y="725.0" type="line"/>
      <point x="906.6997952802262" y="452.0" type="line" smooth="yes"/>
      <point x="872.6686880034924" y="259.0"/>
      <point x="605.1183650964576" y="-5.0"/>
      <point x="422.11836509645764" y="-5.0" type="qcurve" smooth="yes"/>
      <point x="201.1183650964577" y="-5.0"/>
      <point x="16.782170444037916" y="288.0"/>
      <point x="61.569223543988016" y="542.0" type="qcurve" smooth="yes"/>
      <point x="124.16530169549307" y="897.0" type="line" smooth="yes"/>
      <point x="176.8870689273241" y="1196.0"/>
      <point x="463.8455663520705" y="1485.0"/>
      <point x="662.8455663520705" y="1485.0" type="qcurve" smooth="yes"/>
      <point x="840.8455663520705" y="1485.0"/>
      <point x="1009.278154149343" y="1340.0"/>
      <point x="1044.0536305962082" y="1265.0" type="qcurve"/>
      <point x="904.425815181274" y="1131.0" type="line"/>
      <point x="862.2976847729918" y="1204.0"/>
      <point x="755.8120177473807" y="1309.0"/>
      <point x="639.8120177473807" y="1309.0" type="qcurve" smooth="yes"/>
      <point x="507.81201774738065" y="1309.0"/>
      <point x="356.07560254781305" y="1112.0"/>
      <point x="318.51795565691" y="899.0" type="qcurve" smooth="yes"/>
      <point x="255.92187750540495" y="544.0" type="line" smooth="yes"/>
      <point x="223.30138607433895" y="359.0"/>
      <point x="312.038431260602" y="142.0"/>
      <point x="462.038431260602" y="142.0" type="qcurve" smooth="yes"/>
      <point x="549.038431260602" y="142.0"/>
      <point x="697.721767231831" y="299.0"/>
      <point x="731.3495826467654" y="433.0" type="qcurve" smooth="yes"/>
      <point x="756.0353599459504" y="573.0" type="line"/>
      <point x="629.0353599459504" y="573.0" type="line"/>
      <point x="655.8370610136371" y="725.0" type="line"/>
    </contour>
  </outline>
</glyph>
<glyph name="uni20B5" format="2">
  <advance width="1024"/>
  <unicode hex="20B5"/>
  <guideline x="-150.04087258855813" y="-125.0" angle="0.0" identifier="1Am3eQoiKr"/>
  <outline>
    <contour>
      <point x="295.49787366539164" y="-190.0" type="line"/>
      <point x="335.5240982862132" y="37.0" type="line"/>
      <point x="350.9926760161317" y="51.0" type="line"/>
      <point x="466.8395023415932" y="708.0" type="line"/>
      <point x="603.8395023415932" y="708.0" type="line"/>
      <point x="487.8163490354233" y="50.0" type="line"/>
      <point x="498.05307922833856" y="40.0" type="line"/>
      <point x="457.4978736653917" y="-190.0" type="line"/>
    </contour>
    <contour>
      <point x="466.8395023415932" y="708.0" type="line"/>
      <point x="582.1573477249293" y="1362.0" type="line"/>
      <point x="573.9206175320139" y="1372.0" type="line"/>
      <point x="610.9492834807916" y="1582.0" type="line"/>
      <point x="762.9492834807916" y="1582.0" type="line"/>
      <point x="725.9206175320139" y="1372.0" type="line"/>
      <point x="718.6283667828039" y="1359.0" type="line"/>
      <point x="603.8395023415932" y="708.0" type="line"/>
    </contour>
    <contour>
      <point x="729.8785635888908" y="436.0" type="qcurve" smooth="yes"/>
      <point x="734.1104111258938" y="460.0" type="line"/>
      <point x="922.757757164477" y="458.0" type="line"/>
      <point x="917.8785635888908" y="436.0" type="line" smooth="yes"/>
      <point x="874.847456312157" y="243.0"/>
      <point x="626.5918254822884" y="-25.0"/>
      <point x="412.5918254822884" y="-25.0" type="qcurve" smooth="yes"/>
      <point x="191.59182548228836" y="-25.0"/>
      <point x="15.789494427906192" y="237.0"/>
      <point x="55.46306508731084" y="462.0" type="qcurve" smooth="yes"/>
      <point x="150.67963466988192" y="1002.0" type="line" smooth="yes"/>
      <point x="188.41360854149343" y="1216.0"/>
      <point x="457.8455663520705" y="1485.0"/>
      <point x="676.8455663520705" y="1485.0" type="qcurve" smooth="yes"/>
      <point x="893.8455663520705" y="1485.0"/>
      <point x="1049.9401481556627" y="1236.0"/>
      <point x="1022.616790129719" y="1030.0" type="qcurve" smooth="yes"/>
      <point x="1019.7375965541328" y="1008.0" type="line"/>
      <point x="825.3849425927158" y="1006.0" type="line"/>
      <point x="829.616790129719" y="1030.0" type="line" smooth="yes"/>
      <point x="848.1311231041077" y="1135.0"/>
      <point x="798.33855736155" y="1329.0"/>
      <point x="652.33855736155" y="1329.0" type="qcurve" smooth="yes"/>
      <point x="505.33855736155" y="1329.0"/>
      <point x="370.77602781473473" y="1150.0"/>
      <point x="345.0322886312988" y="1004.0" type="qcurve" smooth="yes"/>
      <point x="249.81571904872771" y="464.0" type="line" smooth="yes"/>
      <point x="222.8376910003326" y="311.0"/>
      <point x="302.51189164643273" y="122.0"/>
      <point x="452.5118916464327" y="122.0" type="qcurve" smooth="yes"/>
      <point x="570.5118916464327" y="122.0"/>
      <point x="706.2507481739565" y="302.0"/>
    </contour>
  </outline>
</glyph>
<glyph name="rupeeIndian" format="2">
  <advance width="944"/>
  <unicode hex="20B9"/>
  <outline>
    <contour>
      <point x="56.394707904540155" y="938.0" type="line"/>
      <point x="82.3147740686845" y="1085.0" type="line"/>
      <point x="973.3147740686845" y="1085.0" type="line"/>
      <point x="947.3947079045402" y="938.0" type="line"/>
    </contour>
    <contour>
      <point x="598.0" y="0.0" type="line"/>
      <point x="499.07930384916017" y="267.0" type="line" smooth="yes"/>
      <point x="435.40754453101613" y="439.0"/>
      <point x="254.1537250424081" y="568.0"/>
      <point x="65.91699484949277" y="578.0" type="qcurve" smooth="yes"/>
      <point x="-6.201370246964913" y="583.0" type="line"/>
      <point x="19.366041955762512" y="728.0" type="line"/>
      <point x="267.3660419557625" y="728.0" type="line" smooth="yes"/>
      <point x="428.3660419557625" y="728.0"/>
      <point x="601.6991652935307" y="866.0"/>
      <point x="628.6771933419258" y="1019.0" type="qcurve" smooth="yes"/>
      <point x="650.8943929111924" y="1145.0"/>
      <point x="553.9303828438383" y="1304.0"/>
      <point x="382.75405586312985" y="1303.0" type="qcurve" smooth="yes"/>
      <point x="120.75405586312985" y="1303.0" type="line"/>
      <point x="147.73208391152502" y="1456.0" type="line"/>
      <point x="1047.732083911525" y="1456.0" type="line"/>
      <point x="1020.9303828438383" y="1304.0" type="line"/>
      <point x="785.9303828438383" y="1304.0" type="line"/>
      <point x="710.340998689506" y="1312.0" type="line"/>
      <point x="710.9303828438383" y="1304.0" type="line"/>
      <point x="762.9932273840013" y="1276.0"/>
      <point x="822.0756025478131" y="1112.0"/>
      <point x="805.6771933419258" y="1019.0" type="qcurve" smooth="yes"/>
      <point x="774.4673177565276" y="842.0"/>
      <point x="575.0811151904207" y="664.0"/>
      <point x="380.20192161483453" y="642.0" type="qcurve"/>
      <point x="470.1464010585398" y="619.0"/>
      <point x="630.9340841451855" y="459.0"/>
      <point x="686.8956528845833" y="317.0" type="qcurve" smooth="yes"/>
      <point x="801.0" y="0.0" type="line"/>
    </contour>
  </outline>
</glyph>
<glyph name="ruble" format="2">
  <advance width="1024"/>
  <unicode hex="20BD"/>
  <outline>
    <contour>
      <point x="426.44109313570596" y="615.0" type="qcurve" smooth="yes"/>
      <point x="10.441093135705955" y="615.0" type="line"/>
      <point x="36.713813261267234" y="764.0" type="line"/>
      <point x="452.7138132612672" y="764.0" type="line" smooth="yes"/>
      <point x="615.7138132612672" y="764.0"/>
      <point x="794.9865333868286" y="913.0"/>
      <point x="816.1457710718444" y="1033.0" type="qcurve" smooth="yes"/>
      <point x="834.6601040462331" y="1138.0"/>
      <point x="716.9303828438383" y="1304.0"/>
      <point x="547.5777288824214" y="1302.0" type="qcurve" smooth="yes"/>
      <point x="464.5777288824214" y="1302.0" type="line"/>
      <point x="235.0" y="0.0" type="line"/>
      <point x="60.0" y="0.0" type="line"/>
      <point x="316.732083911525" y="1456.0" type="line"/>
      <point x="574.732083911525" y="1456.0" type="line" smooth="yes"/>
      <point x="820.732083911525" y="1456.0"/>
      <point x="1040.5899355222018" y="1217.0"/>
      <point x="1008.4984250332614" y="1035.0" type="qcurve" smooth="yes"/>
      <point x="973.2330288915682" y="835.0"/>
      <point x="672.6174201164145" y="616.0"/>
    </contour>
    <contour>
      <point x="620.0573318975553" y="420.0" type="line"/>
      <point x="593.6082847912855" y="270.0" type="line"/>
      <point x="-50.39171520871446" y="270.0" type="line"/>
      <point x="-23.942668102444713" y="420.0" type="line"/>
    </contour>
  </outline>
</glyph>
<glyph name="divisionslash" format="2">
  <advance width="656"/>
  <unicode hex="2215"/>
  <outline>
    <contour>
      <point x="-210.80658372359886" y="-118.0" type="line"/>
      <point x="700.188455001663" y="1555.0" type="line"/>
      <point x="833.606394831199" y="1512.0" type="line"/>
      <point x="-77.38864389406285" y="-161.0" type="line"/>
    </contour>
  </outline>
</glyph>
<glyph name="lessequal" format="2">
  <advance width="1024"/>
  <unicode hex="2264"/>
  <outline>
    <contour>
      <point x="799.4972436786961" y="224.0" type="line"/>
      <point x="150.50149634791285" y="604.0" type="line"/>
      <point x="175.18727364709798" y="744.0" type="line"/>
      <point x="958.1915263163146" y="1124.0" type="line"/>
      <point x="925.9236888466655" y="941.0" type="line"/>
      <point x="349.84438499750536" y="674.0" type="line"/>
      <point x="831.7650811483452" y="407.0" type="line"/>
    </contour>
    <contour>
      <point x="4.176326980708467" y="1.0" type="line"/>
      <point x="32.91762483618825" y="164.0" type="line"/>
      <point x="812.9176248361882" y="164.0" type="line"/>
      <point x="784.1763269807085" y="1.0" type="line"/>
    </contour>
  </outline>
</glyph>
<glyph name="brevecomb.case" format="2">
  <advance width="1024"/>
  <outline>
    <contour>
      <point x="1023.4221138799267" y="1976.0" type="qcurve"/>
      <point x="1104.0792252303343" y="1906.0" type="line"/>
      <point x="1047.6228541401963" y="1807.0"/>
      <point x="817.1762483618826" y="1640.0"/>
      <point x="673.1762483618826" y="1640.0" type="qcurve" smooth="yes"/>
      <point x="545.1762483618826" y="1640.0"/>
      <point x="365.1542764102777" y="1793.0"/>
      <point x="337.2555522110427" y="1907.0" type="qcurve"/>
      <point x="449.42211387992677" y="1976.0" type="line"/>
      <point x="481.3135140952935" y="1913.0"/>
      <point x="607.9755081016131" y="1809.0"/>
      <point x="702.9755081016131" y="1809.0" type="qcurve" smooth="yes"/>
      <point x="804.9755081016131" y="1809.0"/>
      <point x="968.4318791917512" y="1908.0"/>
    </contour>
  </outline>
</glyph>
<glyph name="brevegravecomb" format="2">
  <advance width="1024"/>
  <anchor x="512" y="1052" name="_top"/>
  <outline>
    <contour>
      <point x="908" y="1540.0" type="qcurve"/>
      <point x="994" y="1486.0" type="line"/>
      <point x="942" y="1387.0"/>
      <point x="737" y="1220.0"/>
      <point x="611" y="1220.0" type="qcurve" smooth="yes"/>
      <point x="498" y="1220.0"/>
      <point x="344" y="1373.0"/>
      <point x="322" y="1487.0" type="qcurve"/>
      <point x="435" y="1540.0" type="line"/>
      <point x="460" y="1483.0"/>
      <point x="562" y="1384.0"/>
      <point x="641" y="1384.0" type="qcurve" smooth="yes"/>
      <point x="725" y="1384.0"/>
      <point x="862" y="1479.0"/>
    </contour>
    <contour>
      <point x="621" y="1590" type="line"/>
      <point x="379" y="1865" type="line"/>
      <point x="546" y="1970" type="line"/>
      <point x="737" y="1669" type="line"/>
    </contour>
  </outline>
</glyph>
<glyph name="brevehookabovecomb.case" format="2">
  <advance width="1024"/>
  <anchor x="512" y="1456" name="_top"/>
  <outline>
    <contour>
      <point x="936.222968189275" y="1900.0" type="qcurve"/>
      <point x="1027.5853874625163" y="1834.0" type="line"/>
      <point x="975.2449401408799" y="1747.0"/>
      <point x="758.3248739767356" y="1600.0"/>
      <point x="621.3248739767356" y="1600.0" type="qcurve" smooth="yes"/>
      <point x="499.3248739767356" y="1600.0"/>
      <point x="327.1290163723784" y="1735.0"/>
      <point x="298.76171444322483" y="1835.0" type="qcurve"/>
      <point x="420.2229681892751" y="1900.0" type="line"/>
      <point x="449.70131123101794" y="1846.0"/>
      <point x="564.3608639093816" y="1759.0"/>
      <point x="649.3608639093816" y="1759.0" type="qcurve" smooth="yes"/>
      <point x="741.3608639093816" y="1759.0"/>
      <point x="886.9960033081841" y="1842.0"/>
    </contour>
    <contour>
      <point x="538.5968599051389" y="1950.0" type="line"/>
      <point x="546.8842279984367" y="1997.0" type="line" smooth="yes"/>
      <point x="554.8189421303176" y="2042.0"/>
      <point x="615.9879451271579" y="2094.0"/>
      <point x="684.574887953534" y="2103.0" type="qcurve" smooth="yes"/>
      <point x="736.8091768184933" y="2110.0"/>
      <point x="766.7463322783303" y="2138.0"/>
      <point x="773.094103583835" y="2174.0" type="qcurve" smooth="yes"/>
      <point x="779.0892209279228" y="2208.0"/>
      <point x="740.7920875228006" y="2229.0"/>
      <point x="691.7920875228006" y="2229.0" type="qcurve" smooth="yes"/>
      <point x="635.7920875228006" y="2229.0"/>
      <point x="531.6786050822551" y="2200.0"/>
      <point x="521.4443162172959" y="2193.0" type="qcurve"/>
      <point x="494.42722692160316" y="2312.0" type="line"/>
      <point x="528.4247855936471" y="2329.0"/>
      <point x="670.5962299184434" y="2364.0"/>
      <point x="744.5962299184434" y="2364.0" type="qcurve" smooth="yes"/>
      <point x="850.5962299184434" y="2364.0"/>
      <point x="943.1398588283053" y="2265.0"/>
      <point x="928.3283924487943" y="2181.0" type="qcurve" smooth="yes"/>
      <point x="912.9879451271579" y="2094.0"/>
      <point x="803.9421898826874" y="2003.0"/>
      <point x="695.1789200756028" y="1993.0" type="qcurve"/>
      <point x="687.5968599051389" y="1950.0" type="line"/>
    </contour>
  </outline>
</glyph>
<glyph name="brevehookabovecomb" format="2">
  <advance width="1024"/>
  <anchor x="512" y="1052" name="_top"/>
  <outline>
    <contour>
      <point x="908" y="1540.0" type="qcurve"/>
      <point x="994" y="1486.0" type="line"/>
      <point x="942" y="1387.0"/>
      <point x="737" y="1220.0"/>
      <point x="611" y="1220.0" type="qcurve" smooth="yes"/>
      <point x="498" y="1220.0"/>
      <point x="344" y="1373.0"/>
      <point x="322" y="1487.0" type="qcurve"/>
      <point x="435" y="1540.0" type="line"/>
      <point x="460" y="1483.0"/>
      <point x="562" y="1384.0"/>
      <point x="641" y="1384.0" type="qcurve" smooth="yes"/>
      <point x="725" y="1384.0"/>
      <point x="862" y="1479.0"/>
    </contour>
    <contour>
      <point x="572" y="1590" type="line"/>
      <point x="572" y="1629" type="line" smooth="yes"/>
      <point x="572" y="1681"/>
      <point x="631" y="1751"/>
      <point x="707" y="1762" type="qcurve" smooth="yes"/>
      <point x="763" y="1770"/>
      <point x="803" y="1802"/>
      <point x="803" y="1843.0" type="qcurve" smooth="yes"/>
      <point x="803" y="1882.0"/>
      <point x="744" y="1918"/>
      <point x="690" y="1918" type="qcurve" smooth="yes"/>
      <point x="626" y="1918"/>
      <point x="514" y="1885"/>
      <point x="504" y="1877" type="qcurve"/>
      <point x="450" y="2002" type="line"/>
      <point x="485" y="2021"/>
      <point x="639" y="2062"/>
      <point x="721" y="2062" type="qcurve" smooth="yes"/>
      <point x="841" y="2062"/>
      <point x="966" y="1948"/>
      <point x="966" y="1852.0" type="qcurve" smooth="yes"/>
      <point x="966" y="1751"/>
      <point x="838" y="1632"/>
      <point x="695" y="1621" type="qcurve"/>
      <point x="695" y="1590" type="line"/>
    </contour>
  </outline>
</glyph>
<glyph name="breveinvertedcomb.case" format="2">
  <advance width="1024"/>
  <anchor x="512" y="1456" name="_top"/>
  <anchor x="512" y="1936" name="top"/>
  <outline>
    <contour>
      <point x="378.415419882754" y="1600.0" type="qcurve"/>
      <point x="297.7583085323466" y="1670.0" type="line"/>
      <point x="354.2146796224846" y="1769.0"/>
      <point x="584.6612854007983" y="1936.0"/>
      <point x="728.6612854007983" y="1936.0" type="qcurve" smooth="yes"/>
      <point x="856.6612854007983" y="1936.0"/>
      <point x="1036.683257352403" y="1783.0"/>
      <point x="1064.5819815516381" y="1669.0" type="qcurve"/>
      <point x="952.4154198827541" y="1600.0" type="line"/>
      <point x="920.5240196673872" y="1663.0"/>
      <point x="793.8620256610677" y="1767.0"/>
      <point x="698.8620256610677" y="1767.0" type="qcurve" smooth="yes"/>
      <point x="596.8620256610677" y="1767.0"/>
      <point x="433.40565457092964" y="1668.0"/>
    </contour>
  </outline>
</glyph>
<glyph name="brevetildecomb.case" format="2">
  <advance width="1024"/>
  <anchor x="512" y="1456" name="_top"/>
  <outline>
    <contour>
      <point x="936.222968189275" y="1900.0" type="qcurve"/>
      <point x="1027.5853874625163" y="1834.0" type="line"/>
      <point x="975.2449401408799" y="1747.0"/>
      <point x="758.3248739767356" y="1600.0"/>
      <point x="621.3248739767356" y="1600.0" type="qcurve" smooth="yes"/>
      <point x="499.3248739767356" y="1600.0"/>
      <point x="327.1290163723784" y="1735.0"/>
      <point x="298.76171444322483" y="1835.0" type="qcurve"/>
      <point x="420.2229681892751" y="1900.0" type="line"/>
      <point x="449.70131123101794" y="1846.0"/>
      <point x="564.3608639093816" y="1759.0"/>
      <point x="649.3608639093816" y="1759.0" type="qcurve" smooth="yes"/>
      <point x="741.3608639093816" y="1759.0"/>
      <point x="886.9960033081841" y="1842.0"/>
    </contour>
    <contour>
      <point x="308.11680973249423" y="2119.0" type="line"/>
      <point x="360.8123523435038" y="2191.0"/>
      <point x="497.86054891593017" y="2265.0"/>
      <point x="564.8605489159302" y="2265.0" type="qcurve" smooth="yes"/>
      <point x="599.8605489159302" y="2265.0"/>
      <point x="668.981355340344" y="2243.0"/>
      <point x="700.3968538419238" y="2217.0" type="qcurve" smooth="yes"/>
      <point x="726.5176602663375" y="2195.0"/>
      <point x="786.3462159415412" y="2160.0"/>
      <point x="818.3462159415412" y="2160.0" type="qcurve" smooth="yes"/>
      <point x="858.3462159415412" y="2160.0"/>
      <point x="912.3992951698799" y="2200.0"/>
      <point x="940.27604741751" y="2239.0" type="qcurve"/>
      <point x="1018.2302921730397" y="2148.0" type="line"/>
      <point x="973.1820956006134" y="2074.0"/>
      <point x="846.133899028187" y="2000.0"/>
      <point x="781.1338990281869" y="2000.0" type="qcurve" smooth="yes"/>
      <point x="732.1338990281869" y="2000.0"/>
      <point x="656.3053433529832" y="2035.0"/>
      <point x="629.8318829671525" y="2055.0" type="qcurve" smooth="yes"/>
      <point x="602.5347495620302" y="2076.0"/>
      <point x="545.0588478482434" y="2113.0"/>
      <point x="521.0588478482434" y="2113.0" type="qcurve" smooth="yes"/>
      <point x="485.05884784824343" y="2113.0"/>
      <point x="414.3608639092779" y="2058.0"/>
      <point x="390.07105448802395" y="2028.0" type="qcurve"/>
    </contour>
  </outline>
</glyph>
<glyph name="brevetildecomb" format="2">
  <advance width="1024"/>
  <anchor x="512" y="1052" name="_top"/>
  <outline>
    <contour>
      <point x="908" y="1540.0" type="qcurve"/>
      <point x="994" y="1486.0" type="line"/>
      <point x="942" y="1387.0"/>
      <point x="737" y="1220.0"/>
      <point x="611" y="1220.0" type="qcurve" smooth="yes"/>
      <point x="498" y="1220.0"/>
      <point x="344" y="1373.0"/>
      <point x="322" y="1487.0" type="qcurve"/>
      <point x="435" y="1540.0" type="line"/>
      <point x="460" y="1483.0"/>
      <point x="562" y="1384.0"/>
      <point x="641" y="1384.0" type="qcurve" smooth="yes"/>
      <point x="725" y="1384.0"/>
      <point x="862" y="1479.0"/>
    </contour>
    <contour>
      <point x="297" y="1746.0" type="line"/>
      <point x="341" y="1809.0"/>
      <point x="497" y="1907.0"/>
      <point x="564" y="1907.0" type="qcurve" smooth="yes"/>
      <point x="605" y="1907.0"/>
      <point x="675" y="1882.0"/>
      <point x="708" y="1858.0" type="qcurve" smooth="yes"/>
      <point x="738" y="1836.0"/>
      <point x="808" y="1792.0"/>
      <point x="846" y="1792.0" type="qcurve" smooth="yes"/>
      <point x="886" y="1792.0"/>
      <point x="966" y="1845.0"/>
      <point x="995" y="1881.0" type="qcurve"/>
      <point x="1059" y="1783.0" type="line"/>
      <point x="1008" y="1712.0"/>
      <point x="863" y="1640.0"/>
      <point x="806" y="1640.0" type="qcurve" smooth="yes"/>
      <point x="757" y="1640.0"/>
      <point x="670" y="1683.0"/>
      <point x="642" y="1700.0" type="qcurve" smooth="yes"/>
      <point x="612" y="1719.0"/>
      <point x="550" y="1753.0"/>
      <point x="521" y="1753.0" type="qcurve" smooth="yes"/>
      <point x="474" y="1753.0"/>
      <point x="380" y="1681.0"/>
      <point x="357" y="1654.0" type="qcurve"/>
    </contour>
  </outline>
</glyph>
<glyph name="caroncomb.case" format="2">
  <advance width="1024"/>
  <outline>
    <contour>
      <point x="596.9419594969233" y="1633.0" type="line"/>
      <point x="388.36659332363206" y="1953.0" type="line"/>
      <point x="555.719247285049" y="1955.0" type="line"/>
      <point x="692.8016224488608" y="1791.0" type="line"/>
      <point x="881.3665933236321" y="1953.0" type="line"/>
      <point x="1054.366593323632" y="1953.0" type="line"/>
      <point x="740.9419594969233" y="1633.0" type="line"/>
    </contour>
  </outline>
</glyph>
<glyph name="cedillacomb.case" format="2">
  <advance width="1024"/>
  <anchor x="370" y="0" name="_bottom"/>
  <anchor x="370" y="-517" name="bottom"/>
  <outline>
    <contour>
      <point x="307.6424633826709" y="20.0" type="line"/>
      <point x="446.6424633826708" y="20.0" type="line"/>
      <point x="396.6015907941128" y="-105.0" type="line"/>
      <point x="473.1330130641943" y="-119.0"/>
      <point x="580.9109308390155" y="-211.0"/>
      <point x="567.3337533244637" y="-288.0" type="qcurve" smooth="yes"/>
      <point x="549.1720743114918" y="-391.0"/>
      <point x="302.9548747422252" y="-517.0"/>
      <point x="100.95487474222517" y="-517.0" type="qcurve"/>
      <point x="117.93534411857644" y="-381.0" type="line"/>
      <point x="225.75901713786794" y="-382.0"/>
      <point x="355.63576938549807" y="-343.0"/>
      <point x="364.9810993630467" y="-290.0" type="qcurve" smooth="yes"/>
      <point x="373.6211214177615" y="-241.0"/>
      <point x="311.1452197039747" y="-204.0"/>
      <point x="228.379508568934" y="-197.0" type="qcurve"/>
    </contour>
  </outline>
</glyph>
<glyph name="circumflexacutecomb.case" format="2">
  <advance width="1024"/>
  <anchor x="512" y="1456" name="_top"/>
  <outline>
    <contour>
      <point x="772.884824405401" y="1892.0" type="line"/>
      <point x="986.7499999999461" y="1602.0" type="line"/>
      <point x="824.3973460385292" y="1600.0" type="line"/>
      <point x="677.9067963570059" y="1739.0" type="line"/>
      <point x="488.7499999999461" y="1602.0" type="line"/>
      <point x="320.74999999994617" y="1602.0" type="line"/>
      <point x="628.884824405401" y="1892.0" type="line"/>
    </contour>
    <contour>
      <point x="938.7838635977021" y="1902.0" type="line"/>
      <point x="1281.6337612378152" y="2128.0" type="line"/>
      <point x="1368.716136401627" y="1964.0" type="line"/>
      <point x="1001.3878957197709" y="1792.0" type="line"/>
    </contour>
  </outline>
</glyph>
<glyph name="circumflexacutecomb" format="2">
  <advance width="1024"/>
  <anchor x="512" y="1052" name="_top"/>
  <outline>
    <contour>
      <point x="761" y="1533.0" type="line"/>
      <point x="954" y="1220.0" type="line"/>
      <point x="800" y="1220.0" type="line"/>
      <point x="678" y="1379.0" type="line"/>
      <point x="501" y="1220.0" type="line"/>
      <point x="349" y="1220.0" type="line"/>
      <point x="649" y="1533.0" type="line"/>
    </contour>
    <contour>
      <point x="888" y="1519.0" type="line"/>
      <point x="1181" y="1813.0" type="line"/>
      <point x="1315" y="1708.0" type="line"/>
      <point x="968" y="1433.0" type="line"/>
    </contour>
  </outline>
</glyph>
<glyph name="circumflexgravecomb.case" format="2">
  <advance width="1024"/>
  <anchor x="512" y="1456" name="_top"/>
  <outline>
    <contour>
      <point x="772.884824405401" y="1892.0" type="line"/>
      <point x="986.7499999999461" y="1602.0" type="line"/>
      <point x="824.3973460385292" y="1600.0" type="line"/>
      <point x="677.9067963570059" y="1739.0" type="line"/>
      <point x="488.7499999999461" y="1602.0" type="line"/>
      <point x="320.74999999994617" y="1602.0" type="line"/>
      <point x="628.884824405401" y="1892.0" type="line"/>
    </contour>
    <contour>
      <point x="329.624625913063" y="1792.0" type="line"/>
      <point x="-20.578555675162534" y="1978.0" type="line"/>
      <point x="115.16274218031731" y="2141.0" type="line"/>
      <point x="428.07855567524484" y="1908.0" type="line"/>
    </contour>
  </outline>
</glyph>
<glyph name="circumflexgravecomb" format="2">
  <advance width="1024"/>
  <anchor x="512" y="1052" name="_top"/>
  <outline>
    <contour>
      <point x="761" y="1533.0" type="line"/>
      <point x="954" y="1220.0" type="line"/>
      <point x="800" y="1220.0" type="line"/>
      <point x="678" y="1379.0" type="line"/>
      <point x="501" y="1220.0" type="line"/>
      <point x="349" y="1220.0" type="line"/>
      <point x="649" y="1533.0" type="line"/>
    </contour>
    <contour>
      <point x="995" y="1433" type="line"/>
      <point x="753" y="1708" type="line"/>
      <point x="920" y="1813" type="line"/>
      <point x="1111" y="1512" type="line"/>
    </contour>
  </outline>
</glyph>
<glyph name="circumflexhookabovecomb" format="2">
  <advance width="1024"/>
  <anchor x="512" y="1052" name="_top"/>
  <outline>
    <contour>
      <point x="761" y="1533.0" type="line"/>
      <point x="954" y="1220.0" type="line"/>
      <point x="800" y="1220.0" type="line"/>
      <point x="678" y="1379.0" type="line"/>
      <point x="501" y="1220.0" type="line"/>
      <point x="349" y="1220.0" type="line"/>
      <point x="649" y="1533.0" type="line"/>
    </contour>
    <contour>
      <point x="965" y="1433" type="line"/>
      <point x="965" y="1472" type="line" smooth="yes"/>
      <point x="965" y="1524"/>
      <point x="1024" y="1594"/>
      <point x="1100" y="1605" type="qcurve" smooth="yes"/>
      <point x="1156" y="1613"/>
      <point x="1196" y="1645"/>
      <point x="1196" y="1686.0" type="qcurve" smooth="yes"/>
      <point x="1196" y="1725.0"/>
      <point x="1137" y="1761"/>
      <point x="1083" y="1761" type="qcurve" smooth="yes"/>
      <point x="1019" y="1761"/>
      <point x="907" y="1728"/>
      <point x="897" y="1720" type="qcurve"/>
      <point x="843" y="1845" type="line"/>
      <point x="878" y="1864"/>
      <point x="1032" y="1905"/>
      <point x="1114" y="1905" type="qcurve" smooth="yes"/>
      <point x="1234" y="1905"/>
      <point x="1359" y="1791"/>
      <point x="1359" y="1695.0" type="qcurve" smooth="yes"/>
      <point x="1359" y="1594"/>
      <point x="1231" y="1475"/>
      <point x="1088" y="1464" type="qcurve"/>
      <point x="1088" y="1433" type="line"/>
    </contour>
  </outline>
</glyph>
<glyph name="four.prop" format="2">
  <advance width="1000"/>
  <outline>
    <contour>
      <point x="472.0" y="0.0" type="line"/>
      <point x="542.1781383219691" y="398.0" type="line"/>
      <point x="550.9944873573922" y="448.0" type="line"/>
      <point x="663.8437550108099" y="1088.0" type="line"/>
      <point x="651.8437550108099" y="1088.0" type="line"/>
      <point x="193.45818243139865" y="496.0" type="line"/>
      <point x="624.4581824313987" y="496.0" type="line"/>
      <point x="688.4581824313987" y="496.0" type="line"/>
      <point x="910.4581824313987" y="496.0" type="line"/>
      <point x="883.6564813637119" y="344.0" type="line"/>
      <point x="-31.343518636288053" y="344.0" type="line"/>
      <point x="-9.831626989855323" y="466.0" type="line"/>
      <point x="757.732083911525" y="1456.0" type="line"/>
      <point x="900.732083911525" y="1456.0" type="line"/>
      <point x="644.0" y="0.0" type="line"/>
    </contour>
  </outline>
</glyph>
<glyph name="hookabovecomb.case" format="2">
  <advance width="1024"/>
  <outline>
    <contour>
      <point x="524.0676485772492" y="1577.0" type="line"/>
      <point x="530.9444008248794" y="1616.0" type="line" smooth="yes"/>
      <point x="540.1134038217197" y="1668.0"/>
      <point x="611.456292471312" y="1738.0"/>
      <point x="689.3958892591052" y="1749.0" type="qcurve" smooth="yes"/>
      <point x="746.8065051047729" y="1757.0"/>
      <point x="792.4489684874438" y="1789.0"/>
      <point x="799.6783746964909" y="1830.0" type="qcurve" smooth="yes"/>
      <point x="806.555126944121" y="1869.0"/>
      <point x="753.9028982496258" y="1905.0"/>
      <point x="699.9028982496258" y="1905.0" type="qcurve" smooth="yes"/>
      <point x="635.9028982496258" y="1905.0"/>
      <point x="518.0841078862464" y="1872.0"/>
      <point x="506.6734920405787" y="1864.0" type="qcurve"/>
      <point x="474.71436462913675" y="1989.0" type="line"/>
      <point x="513.0645772625976" y="2008.0"/>
      <point x="674.2939834716447" y="2049.0"/>
      <point x="756.2939834716447" y="2049.0" type="qcurve" smooth="yes"/>
      <point x="876.2939834716447" y="2049.0"/>
      <point x="981.1927076708798" y="1935.0"/>
      <point x="964.265317522867" y="1839.0" type="qcurve" smooth="yes"/>
      <point x="946.456292471312" y="1738.0"/>
      <point x="797.4733817670049" y="1619.0"/>
      <point x="652.5337849792118" y="1608.0" type="qcurve"/>
      <point x="647.0676485772492" y="1577.0" type="line"/>
    </contour>
  </outline>
</glyph>
<glyph name="horncomb.case" format="2">
  <advance width="1024"/>
  <outline>
    <contour>
      <point x="510.732083911525" y="1456.0" type="line"/>
      <point x="583.732083911525" y="1456.0" type="line" smooth="yes"/>
      <point x="646.732083911525" y="1456.0"/>
      <point x="727.1982203134874" y="1487.0"/>
      <point x="737.2488582138699" y="1544.0" type="qcurve" smooth="yes"/>
      <point x="744.4782644229169" y="1585.0"/>
      <point x="746.3501340146349" y="1658.0"/>
      <point x="743.6979053201396" y="1694.0" type="qcurve"/>
      <point x="863.6979053201396" y="1694.0" type="line"/>
      <point x="875.2317689181773" y="1663.0"/>
      <point x="889.8358010402461" y="1553.0"/>
      <point x="879.4325091784467" y="1494.0" type="qcurve" smooth="yes"/>
      <point x="863.9157348761017" y="1406.0"/>
      <point x="734.4544811300516" y="1341.0"/>
      <point x="638.4544811300516" y="1341.0" type="qcurve" smooth="yes"/>
      <point x="592.4544811300516" y="1341.0"/>
      <point x="518.5704048985531" y="1353.0"/>
      <point x="494.1573477249293" y="1362.0" type="qcurve"/>
    </contour>
  </outline>
</glyph>
<glyph name="nine.prop" format="2">
  <advance width="1028"/>
  <outline>
    <contour>
      <point x="124.67963466988189" y="1002.0" type="qcurve" smooth="yes"/>
      <point x="162.7662625029103" y="1218.0"/>
      <point x="446.021893332779" y="1486.0"/>
      <point x="626.021893332779" y="1486.0" type="qcurve" smooth="yes"/>
      <point x="807.021893332779" y="1486.0"/>
      <point x="1012.4184911974057" y="1182.0"/>
      <point x="952.4673177565276" y="842.0" type="qcurve" smooth="yes"/>
      <point x="947.1775083352736" y="812.0" type="line" smooth="yes"/>
      <point x="880.1732556660569" y="432.0"/>
      <point x="444.71019057874605" y="-30.0"/>
      <point x="119.71019057874605" y="-30.0" type="qcurve" smooth="yes"/>
      <point x="102.71019057874605" y="-30.0" type="line"/>
      <point x="129.68821862714117" y="123.0" type="line"/>
      <point x="146.68821862714117" y="123.0" type="line" smooth="yes"/>
      <point x="377.68821862714117" y="123.0"/>
      <point x="703.6997952802262" y="452.0"/>
      <point x="765.4142385281889" y="802.0" type="qcurve" smooth="yes"/>
      <point x="774.2305875636122" y="852.0" type="line" smooth="yes"/>
      <point x="820.6045834899385" y="1115.0"/>
      <point x="711.0438652843839" y="1333.0"/>
      <point x="599.0438652843839" y="1333.0" type="qcurve" smooth="yes"/>
      <point x="488.04386528438386" y="1333.0"/>
      <point x="335.3629706411109" y="1159.0"/>
      <point x="307.6796346698819" y="1002.0" type="qcurve" smooth="yes"/>
      <point x="280.1726256793614" y="846.0"/>
      <point x="372.02071197821385" y="675.0"/>
      <point x="483.02071197821385" y="675.0" type="qcurve" smooth="yes"/>
      <point x="588.0207119782139" y="675.0"/>
      <point x="779.1726256793613" y="846.0"/>
      <point x="806.6796346698819" y="1002.0" type="qcurve"/>
      <point x="874.6796346698819" y="1002.0" type="line"/>
      <point x="836.7693338175619" y="787.0"/>
      <point x="588.0426839298187" y="522.0"/>
      <point x="423.04268392981874" y="522.0" type="qcurve" smooth="yes"/>
      <point x="252.04268392981874" y="522.0"/>
      <point x="86.76933381756194" y="787.0"/>
    </contour>
  </outline>
</glyph>
<glyph name="seven.prop" format="2">
  <advance width="971"/>
  <outline>
    <contour>
      <point x="116.0" y="0.0" type="line"/>
      <point x="789.9303828438383" y="1304.0" type="line"/>
      <point x="185.9303828438383" y="1304.0" type="line"/>
      <point x="212.73208391152502" y="1456.0" type="line"/>
      <point x="1004.732083911525" y="1456.0" type="line"/>
      <point x="986.7467318792615" y="1354.0" type="line"/>
      <point x="304.0" y="0.0" type="line"/>
    </contour>
  </outline>
</glyph>
<glyph name="three.prop" format="2">
  <advance width="1038"/>
  <outline>
    <contour>
      <point x="40.0042526692167" y="380.0" type="qcurve" smooth="yes"/>
      <point x="41.76752247630134" y="390.0" type="line"/>
      <point x="219.76752247630134" y="390.0" type="line"/>
      <point x="218.00425266921673" y="380.0" type="line" smooth="yes"/>
      <point x="196.49236102278394" y="258.0"/>
      <point x="299.68821862714117" y="123.0"/>
      <point x="404.68821862714117" y="123.0" type="qcurve" smooth="yes"/>
      <point x="509.68821862714117" y="123.0"/>
      <point x="658.4923610227839" y="258.0"/>
      <point x="683.530792283386" y="400.0" type="qcurve" smooth="yes"/>
      <point x="708.3928965632796" y="541.0"/>
      <point x="590.6076548045901" y="684.0"/>
      <point x="470.6076548045901" y="684.0" type="qcurve" smooth="yes"/>
      <point x="369.60765480459" y="684.0" type="line"/>
      <point x="396.05670191085983" y="834.0" type="line"/>
      <point x="488.05670191085983" y="834.0" type="line" smooth="yes"/>
      <point x="598.0567019108598" y="834.0"/>
      <point x="739.8608443065026" y="969.0"/>
      <point x="761.3727359529353" y="1091.0" type="qcurve" smooth="yes"/>
      <point x="782.7083006186596" y="1212.0"/>
      <point x="704.0438652843839" y="1333.0"/>
      <point x="618.0438652843839" y="1333.0" type="qcurve" smooth="yes"/>
      <point x="532.0438652843839" y="1333.0"/>
      <point x="399.70830061865956" y="1212.0"/>
      <point x="379.9596787793115" y="1100.0" type="qcurve" smooth="yes"/>
      <point x="378.19640897222683" y="1090.0" type="line"/>
      <point x="200.19640897222683" y="1090.0" type="line"/>
      <point x="201.9596787793115" y="1100.0" type="line" smooth="yes"/>
      <point x="230.17199569266586" y="1260.0"/>
      <point x="483.021893332779" y="1486.0"/>
      <point x="645.021893332779" y="1486.0" type="qcurve" smooth="yes"/>
      <point x="808.021893332779" y="1486.0"/>
      <point x="976.9352654997506" y="1270.0"/>
      <point x="946.9596787793114" y="1100.0" type="qcurve" smooth="yes"/>
      <point x="929.326980708465" y="1000.0"/>
      <point x="801.8828162581074" y="816.0"/>
      <point x="692.0664672226842" y="766.0" type="qcurve"/>
      <point x="691.3611592998503" y="762.0" type="line"/>
      <point x="795.7186959171795" y="730.0"/>
      <point x="894.2165695825711" y="540.0"/>
      <point x="869.7071192640944" y="401.0" type="qcurve" smooth="yes"/>
      <point x="834.265396141693" y="200.0"/>
      <point x="557.710190578746" y="-30.0"/>
      <point x="377.71019057874605" y="-30.0" type="qcurve" smooth="yes"/>
      <point x="197.71019057874605" y="-30.0"/>
      <point x="8.265396141693003" y="200.0"/>
    </contour>
  </outline>
</glyph>
<glyph name="zerosuperior" format="2">
  <advance width="697"/>
  <outline>
    <contour>
      <point x="114.62167278563112" y="996.0" type="qcurve" smooth="yes"/>
      <point x="147.06583723598868" y="1180.0" type="line" smooth="yes"/>
      <point x="172.80957641942456" y="1326.0"/>
      <point x="352.7851631398636" y="1496.0"/>
      <point x="484.7851631398636" y="1496.0" type="qcurve" smooth="yes"/>
      <point x="616.7851631398636" y="1496.0"/>
      <point x="735.8095764194245" y="1326.0"/>
      <point x="710.0658372359887" y="1180.0" type="qcurve" smooth="yes"/>
      <point x="677.6216727856311" y="996.0" type="line" smooth="yes"/>
      <point x="651.8779336021953" y="850.0"/>
      <point x="472.9023468817562" y="680.0"/>
      <point x="340.9023468817562" y="680.0" type="qcurve" smooth="yes"/>
      <point x="208.90234688175622" y="680.0"/>
      <point x="88.87793360219524" y="850.0"/>
    </contour>
    <contour>
      <point x="276.7400378820888" y="991.0" type="line" smooth="yes"/>
      <point x="263.51551432895394" y="916.0"/>
      <point x="302.6460860651921" y="826.0"/>
      <point x="366.6460860651921" y="826.0" type="qcurve" smooth="yes"/>
      <point x="430.6460860651921" y="826.0"/>
      <point x="500.51551432895394" y="916.0"/>
      <point x="513.7400378820888" y="991.0" type="qcurve" smooth="yes"/>
      <point x="547.947472139531" y="1185.0" type="line" smooth="yes"/>
      <point x="561.1719956926659" y="1260.0"/>
      <point x="523.0414239564277" y="1350.0"/>
      <point x="459.0414239564277" y="1350.0" type="qcurve" smooth="yes"/>
      <point x="395.0414239564277" y="1350.0"/>
      <point x="324.17199569266586" y="1260.0"/>
      <point x="310.947472139531" y="1185.0" type="qcurve" smooth="yes"/>
    </contour>
  </outline>
</glyph>
